<svg xmlns="http://www.w3.org/2000/svg" viewBox="20 19.8 106 170.14999999999998" width="106" height="170.14999999999998">
<path d="M105.5 33.25 Q105.6 32.15 106.9 29.9 Q108.2 27.4 108.2 26.4 Q108.2 25.65 104.1 23.7 Q99.8 21.6 97.65 21.6 Q95.4 21.6 94.35 23.15 Q93.2 24.6 92.25 24.65 Q90.6 23.9 90.35 23.9 Q85.75 28.6 85.55 29.05 Q85.25 29.6 85.25 33.25 Q85.25 35.2 84.5 36.45 L83.95 37.15 L82.1 39.7 L81.95 39.95 L81 39.6 Q80.95 39.05 82.4 37.4 L82.95 36.75 Q83.8 35.55 83.7 34.95 Q83.4 31.2 83.6 30.35 Q83.6 27.65 86.9 24.6 Q89.65 21.95 90.45 21.95 Q90.95 21.95 92 22.9 Q92.05 22.85 93.95 21.35 Q95.85 19.8 97.5 19.8 Q100.8 19.8 105.55 22.8 Q109.8 25.45 109.8 26.4 Q109.8 28.85 109 30.3 L106.6 33.95 L106 34.95 L105.85 34.95 L105.65 34.95 Q105.45 34.45 105.5 33.45 L105.5 33.25 Z" fill="#584f3d" fill-rule="evenodd"/>
<path d="M106.9 29.9 Q105.6 32.15 105.5 33.25 L105.3 33.25 Q103.85 33.25 101.8 34.4 L99.35 35.9 L99 34.85 Q98.85 34.45 97.85 34.45 Q94.95 34.4 94.3 36.45 Q93.9 37.55 93.6 39.6 Q92.9 40.65 90.7 42.1 L89.8 42.75 Q87.9 40.6 85.25 40.45 L82.1 39.7 L83.95 37.15 L84.5 36.45 Q85.25 35.2 85.25 33.25 Q85.25 29.6 85.55 29.05 Q85.75 28.6 90.35 23.9 Q90.6 23.9 92.25 24.65 Q93.2 24.6 94.35 23.15 Q95.4 21.6 97.65 21.6 Q99.8 21.6 104.1 23.7 Q108.2 25.65 108.2 26.4 Q108.2 27.4 106.9 29.9 Z" fill="#756951" fill-rule="evenodd"/>
<path d="M89.8 42.75 L90.7 42.1 Q92.9 40.65 93.6 39.6 Q93.9 37.55 94.3 36.45 Q94.95 34.4 97.85 34.45 Q98.85 34.45 99 34.85 L99.35 35.9 L101.8 34.4 Q103.85 33.25 105.3 33.25 L105.5 33.25 L105.5 33.45 Q105.45 34.45 105.65 34.95 Q103.8 35.3 101.65 36.65 L99.55 38 Q98.6 37.95 98.25 37.2 L97.75 35.9 Q96.25 36.7 94.85 40.85 Q93.75 44.1 90.6 44.3 L90.25 44.3 L89.15 44.2 L88.6 43.95 L88.8 43.6 L89.8 42.75 Z M105.85 34.95 L106 34.95 L106.6 33.95 Q107.6 35.2 107.2 39.1 L107.05 43.1 Q106.4 45.7 103.85 46 L105.85 43.5 Q105.2 42.75 105.2 41.85 L105.9 37.4 L105.85 34.95 Z M91.1 50.8 Q91.6 50.4 92.6 50.4 Q93.4 50.4 95 51.4 Q96.6 52.3 97.25 52.3 Q98.7 52.3 103.6 46.35 Q103.4 53.85 97.35 53.85 Q93.5 51.8 92.95 51.8 Q92.05 51.8 91.95 52.2 L91.3 52.75 Q90.7 52.45 90.7 51.8 Q90.7 51.1 91.1 50.8 Z M109.95 88.25 Q109.35 87.95 109.35 87.45 L109.45 86.65 L109.6 86.65 Q120.45 86.8 123.2 84.8 Q124.35 83.95 124.35 80.6 Q124.3 78.6 123.6 75.3 L123.6 75.05 L119.45 76.05 Q118.1 76 118 74.8 L118.25 73.25 L118.25 73.15 Q117.35 73.6 113.1 77.65 Q110.4 80.15 106.1 81.35 L104.65 81.75 Q104.45 82.05 104.45 81.15 L104.6 80.6 L104.65 80.3 Q106.8 80.25 111.7 75.8 Q116.55 71.3 117.85 71.3 Q119.65 71.3 119.85 72.7 L119.65 74.35 L123.05 73.5 Q126.6 73.5 125.9 83.9 Q125.85 85.85 122.2 87.1 Q118.25 88.45 111.6 88.45 L109.95 88.25 Z" fill="#ab8869" fill-rule="evenodd"/>
<path d="M82.1 39.7 L85.25 40.45 Q87.9 40.6 89.8 42.75 L88.8 43.6 L88.45 43.2 Q87.05 42 82.95 41.3 Q80.55 40.9 79.9 40.1 Q66.6 50.15 60.5 58.2 Q53.15 67.9 53.15 78.7 Q53.6 87.3 54.35 91.35 L54.25 92.45 Q54.25 93.1 55.05 94.55 L55.25 94.8 Q52.7 93.25 52.05 86.75 L51.9 78.7 Q51.85 65.5 58.6 57.45 Q61.85 53.55 71.8 45.05 Q81.55 36.7 82.65 36.7 L82.95 36.75 L82.4 37.4 Q80.95 39.05 81 39.6 L81.95 39.95 L82.1 39.7 Z M89.15 44.2 L90.25 44.3 L90.6 44.3 L90.75 45.5 L90.9 48.4 L91.1 50.8 Q90.7 51.1 90.7 51.8 Q90.7 52.45 91.3 52.75 L92.05 59.3 Q92.05 60.8 90.9 67.4 Q90.9 74.4 93.95 77.05 Q95.65 78.55 100.65 79.45 Q102.95 79.9 104.6 80.6 L104.45 81.15 Q104.45 82.05 104.65 81.75 L106.1 81.35 L107.35 82.35 Q108.85 83.9 109.6 86.65 L109.45 86.65 L109.35 87.45 Q109.35 87.95 109.95 88.25 Q110.35 90.45 110.35 93.35 Q109.35 98.65 107.65 98.7 Q104.9 98.65 99.9 96.35 Q94.9 94.05 92.15 94.05 L89.3 94.2 L89.3 97.95 Q89.8 104.35 94.45 123.1 Q98.65 140.2 98.65 149.1 Q98.65 151.05 92.3 163.25 Q87.1 173.1 84.6 177.05 Q85.6 177.7 86.65 179.2 L88.8 182.25 Q94.3 185.05 94.3 187.9 L93.3 188.4 L93.3 188.3 L93.3 187.85 Q93.3 186.85 88.35 182.3 L83.7 178.3 L82.55 177.3 L82.55 176.7 L82.95 176.5 L84.35 176.9 Q85.95 173.6 91.5 163.95 Q97.8 152.85 97.8 149.2 Q97.8 141.3 93 122.4 Q88.2 103.45 88.25 96.15 Q88.2 92.9 89.5 92.9 Q95.7 92.9 100.35 95.25 Q105 97.55 105.75 97.55 Q108.65 97.55 109.3 93.35 Q109.3 86.1 106.3 83.1 Q104.4 81.2 99.85 80.5 Q94.8 79.65 93.3 78.6 Q90.3 76.5 90.35 70.85 Q89.6 68.45 89.65 67.6 L90.7 57.4 Q90.7 52.75 89.25 47.85 Q89.75 45.55 89.15 44.2 Z M55.75 95.5 Q56.4 96.2 57.15 96.35 L55.35 104.9 Q55.3 110.05 59.7 122.35 L64.05 134.25 L63.8 135.35 L59.8 135.7 Q54.05 133.35 50.85 133.4 Q48.55 133.4 47.55 134.1 L46.5 135.25 Q46.15 135.55 46.2 134.65 L46.75 133.4 L47.3 132.65 L46.9 132.65 Q46.9 131.3 45.2 128.9 Q43.5 126.55 42.6 126.55 Q40.7 126.55 35.25 130.55 L29.45 134.95 Q27.15 136.15 24.65 138.8 Q21.5 142 21.55 144.15 Q21.55 145 24.15 145.65 Q25.15 145.65 29.1 143.65 Q32.95 141.65 34.3 141.65 Q39.65 141.65 42.95 142.95 Q45.3 143.85 45.3 144.55 L45.15 145.65 L45.25 146.25 L45.25 146.4 L44.5 146.35 L43.05 146.45 Q43.25 145.55 43.85 144.75 L35.9 143.2 Q32.6 143.15 29.45 145.15 Q26.25 147.1 24.8 147.1 Q22.5 147.1 21.05 145.75 Q20 144.8 20 144.3 Q20 141.95 28.65 133.85 Q37.85 125.1 42.95 125.1 Q44.15 125.1 46.2 127.55 Q48.15 129.85 48.15 130.75 L47.9 132.2 L48.55 132.05 Q52.95 132.05 56.1 133.3 L59.45 134.45 L62.75 134.1 L57.4 119.7 Q54.25 111 54.25 105 Q54.25 98.65 55.75 95.5 Z M63.05 152.55 L75.1 152.1 L75.45 151 L77.3 148.85 Q78.95 146 79.8 145.25 Q77.4 133.85 75.45 130.85 L75.45 130.15 L76.65 129.95 Q77.3 129.95 79.2 137.85 L81 145.9 Q81 147.45 76.4 158.75 Q71.4 170.85 70.8 173.75 Q67.95 174.15 66.1 180.15 Q64.75 184.45 64.8 186.7 Q64.75 187.4 66.95 188.2 Q69.2 189.05 71.4 189.1 L93.15 188.2 L93.25 188.45 Q88.7 189.95 71.4 189.95 Q63.55 189.95 63.6 186.9 Q63.6 180.85 66.7 175.8 Q70.75 169.05 71.5 166.2 Q72.4 162.85 76.35 154.25 L78.75 148.8 L77.6 150.35 L76.3 152.8 L75.65 153.35 L74.4 153.7 L65.75 153.95 L63.05 152.55 Z" fill="#b2b2b2" fill-rule="evenodd"/>
<path d="M93.3 187.85 L93.3 188.3 L93.3 188.4 L93.25 188.45 L93.15 188.2 L93.3 187.85 Z" fill="#ffffff" fill-rule="evenodd"/>
<path d="M105.65 34.95 L105.85 34.95 L105.9 37.4 L105.2 41.85 Q105.2 42.75 105.85 43.5 L103.85 46 L103.6 46.35 Q98.7 52.3 97.25 52.3 Q96.6 52.3 95 51.4 Q93.4 50.4 92.6 50.4 Q91.6 50.4 91.1 50.8 L90.9 48.4 L90.75 45.5 L90.6 44.3 Q93.75 44.1 94.85 40.85 Q96.25 36.7 97.75 35.9 L98.25 37.2 Q98.6 37.95 99.55 38 L101.65 36.65 Q103.8 35.3 105.65 34.95 Z M109.6 86.65 Q108.85 83.9 107.35 82.35 L106.1 81.35 Q110.4 80.15 113.1 77.65 Q117.35 73.6 118.25 73.15 L118.25 73.25 L118 74.8 Q118.1 76 119.45 76.05 L123.6 75.05 L123.6 75.3 Q124.3 78.6 124.35 80.6 Q124.35 83.95 123.2 84.8 Q120.45 86.8 109.6 86.65 Z" fill="#dec8a9" fill-rule="evenodd"/>
<path d="M55.25 94.8 L55.05 94.55 Q54.25 93.1 54.25 92.45 L54.35 91.35 Q53.6 87.3 53.15 78.7 Q53.15 67.9 60.5 58.2 Q66.6 50.15 79.9 40.1 Q80.55 40.9 82.95 41.3 Q87.05 42 88.45 43.2 L88.8 43.6 L88.6 43.95 L89.15 44.2 Q89.75 45.55 89.25 47.85 Q90.7 52.75 90.7 57.4 L89.65 67.6 Q89.6 68.45 90.35 70.85 Q90.3 76.5 93.3 78.6 Q94.8 79.65 99.85 80.5 Q104.4 81.2 106.3 83.1 Q109.3 86.1 109.3 93.35 Q108.65 97.55 105.75 97.55 Q105 97.55 100.35 95.25 Q95.7 92.9 89.5 92.9 Q88.2 92.9 88.25 96.15 Q88.2 103.45 93 122.4 Q97.8 141.3 97.8 149.2 Q97.8 152.85 91.5 163.95 Q85.95 173.6 84.35 176.9 L82.95 176.5 L82.55 176.7 L82.55 177.3 L83.7 178.3 L88.35 182.3 Q93.3 186.85 93.3 187.85 L93.15 188.2 L71.4 189.1 Q69.2 189.05 66.95 188.2 Q64.75 187.4 64.8 186.7 Q64.75 184.45 66.1 180.15 Q67.95 174.15 70.8 173.75 Q71.4 170.85 76.4 158.75 Q81 147.45 81 145.9 L79.2 137.85 Q77.3 129.95 76.65 129.95 L75.45 130.15 L75.45 130.85 Q77.4 133.85 79.8 145.25 Q78.95 146 77.3 148.85 L75.45 151 L75.1 152.1 L63.05 152.55 L59.95 151 Q50.75 146.65 45.25 146.4 L45.25 146.25 L45.15 145.65 L45.3 144.55 Q45.3 143.85 42.95 142.95 Q39.65 141.65 34.3 141.65 Q32.95 141.65 29.1 143.65 Q25.15 145.65 24.15 145.65 Q21.55 145 21.55 144.15 Q21.5 142 24.65 138.8 Q27.15 136.15 29.45 134.95 L35.25 130.55 Q40.7 126.55 42.6 126.55 Q43.5 126.55 45.2 128.9 Q46.9 131.3 46.9 132.65 L47.3 132.65 L46.75 133.4 L46.2 134.65 Q46.15 135.55 46.5 135.25 L47.55 134.1 Q48.55 133.4 50.85 133.4 Q54.05 133.35 59.8 135.7 L63.8 135.35 L64.05 134.25 L59.7 122.35 Q55.3 110.05 55.35 104.9 L57.15 96.35 Q56.4 96.2 55.75 95.5 L55.25 94.8 Z" fill="#d0d6da" fill-rule="evenodd"/>
<path d="M94.85 92.4 Q86.85 90.5 84.1 89 L84.1 88.2 L85.35 88 Q87.05 88 91 89.7 Q94.65 91.15 95.85 92.1 L94.85 92.4 Z M56.5 92.05 Q55.4 90.7 55.45 88.65 Q55.45 70.95 57.35 67.6 L57.65 73.35 L57.3 91.55 L56.5 92.05 Z M79.05 123.15 Q83.6 126.9 84.7 128.95 Q84.3 129.95 83.7 129.95 Q82.1 129.9 77.65 125.3 Q73.5 120.95 73.5 120.55 L73.55 120.2 Q73.9 119.8 74.7 119.85 L79.05 123.15 Z M41.75 130.65 Q40.15 134 34.95 137.5 L34.6 137.75 Q40.5 138.15 44.6 139.95 Q47.5 141.25 48.4 142.65 L48.4 146.8 L46.7 146.5 L46.55 145.2 Q46.55 143.25 46.05 142.55 Q44 139.7 29.7 139.75 Q29.6 139.85 29.6 138.95 Q29.6 138.3 35.15 134.1 Q40.5 129.95 40.8 129.95 Q41.2 129.95 41.75 130.65 Z M49.35 146.75 L49.45 146.15 Q49.7 145.65 50.65 145.6 L49.2 144.55 Q49.85 143.1 51.85 143.1 Q52.9 143.1 60.25 146.55 Q67.4 149.85 67.4 150 Q67.4 150.65 62.3 151.45 L61.25 151.6 L59.95 151 Q53.9 148.15 49.45 147.05 L49.35 146.75 Z M88.5 163.7 Q82.4 175.75 80.75 179.75 Q83.5 180.15 84.8 180.7 L87.75 181.8 L87.9 182.2 L87.8 182.9 L86.6 183.15 L82.7 181.8 Q78.8 180.3 78.85 179.8 Q78.85 178.7 84.05 168.4 Q89.5 157.4 93.15 151.8 Q93.85 152.05 93.9 152.55 L88.5 163.7 Z" fill="#acb0b3" fill-rule="evenodd"/>
<path d="M47.25 129.5 Q32.25 146 22.9 146 L21.15 145.65 Q20.65 144.8 20.65 144 Q20.65 140.7 29.8 133.75 Q39.05 126.75 43.8 126.75 Q44.85 126.75 47.25 129.5 Z M76.1 179 Q86 179 90.15 182.65 Q91.55 183.85 92.3 185.5 L93.15 187.5 L92.65 188.6 Q92.05 189.5 90.8 189.5 Q74.5 189.5 68.9 187.15 Q65.5 185.7 65.5 182.5 Q65.5 180.6 66.2 180.15 Q68.15 179 76.1 179 Z" fill="#333333" fill-rule="evenodd"/>
</svg>
