<svg xmlns="http://www.w3.org/2000/svg" viewBox="-17.9 -1.6 77.05 227.6" width="77.05" height="227.6">
<path d="M21.85 151.65 Q26.35 150.2 31.5 150.2 Q36.7 150.2 38.25 151.2 Q38.75 151.55 38.85 151.95 L38.8 152.3 Q38.75 152.7 34.1 154.3 L30.3 155.45 Q31.45 155.8 32.15 156.55 L33.25 158.4 L36 160.6 L38.8 162.85 Q46.25 169.15 46.25 171.5 Q46.25 174.3 44.95 181.25 Q43.6 187.85 43.55 191.1 Q45.5 188.05 47 188.05 Q48.45 188.05 50.55 191.35 Q50.55 193.55 50.1 194 L46.85 197.1 L49.6 197.4 Q49.4 198.45 49.75 199.8 Q53.25 203.15 53.25 203.65 Q53.25 205.6 54.8 207.15 Q56.25 208.7 56.25 209.8 Q56.25 211.7 50 213.9 L51.2 215.1 Q51.2 215.55 50.45 216.4 Q51.65 216.6 51.65 218.4 Q51.65 219.4 51.3 220.05 Q51.95 220.35 51.95 221.05 Q46.35 225.7 43.05 225.7 L41.05 225.85 L40.6 226 L36.5 225.1 L35.1 225.5 L34.6 225.4 Q34.95 224.5 33.6 223.85 Q32 223 31.8 222.2 Q30 222.6 30 220.55 Q29.95 219.5 31.55 216.75 L30.95 216.75 L30.85 216.25 L24.5 214.9 Q17.1 213.25 14.6 212.3 L7.7 209.5 Q5.65 208.45 4.85 207.15 Q0.25 200.25 0.25 196.75 Q0.2 196.35 3.25 192.95 Q6.25 188.65 6.25 184.15 L5.85 181.15 Q4 181.75 3.55 182.2 Q3.3 182.95 2.5 183.55 Q0.9 184.65 -3.1 184.65 Q-3.55 184.65 -6.25 183.3 L-6.35 183.3 Q-7.5 183.3 -8.35 182.65 L-8.95 181.95 L-10.6 181.05 Q-17.9 177.2 -17.9 175.7 L-17.35 173.1 L-10.6 172.6 Q-7.3 173.5 -5.1 174.3 Q-2.7 173.05 1.55 170.6 Q8.45 167.05 12.95 167.05 Q16.25 167.05 21.6 168.55 L24.25 169.45 Q22.75 167.1 20.05 164.05 L13.25 156.55 L13.25 152.65 Q17.75 152.95 21.85 151.65 Z" fill="#000000" fill-opacity="0.302" fill-rule="evenodd"/>
<path d="M-3.35 92.2 Q-0.65 89.3 -0.25 89.3 Q3.8 89.3 5.4 91.7 Q6.2 92.95 6.45 94.65 Q6.9 95.6 8.75 97 L9.15 90.35 Q9.15 80.45 6.15 71.05 Q3.15 63.5 3.15 62.65 Q3.15 54.95 7.7 39.8 Q8.6 36.95 10.6 34.7 L17.5 28.5 Q20 26.4 27.35 22.75 Q31.8 20.55 33.75 19.8 L33.85 18.75 L34.6 18.75 L34.75 19.45 L35.15 19.35 L34.8 19.65 L35.35 25.65 Q36.7 30.85 41.95 30.85 Q47.5 30.85 49.25 27.7 Q50.2 26.05 50.55 23.35 Q59.15 29 59.15 34 Q59.15 36.35 57.7 39.8 Q56.15 43.15 56.15 47.45 Q56.15 48.55 52.65 56 Q52.3 58.9 52.45 61.25 Q52.05 62.05 46.65 62.05 Q45.75 62.05 45.6 63.85 L45.6 65.8 L46.45 74.5 Q46.45 81.55 47.85 96.75 Q49.15 112 49.15 118.2 Q49.15 123.3 41.65 137.25 L38.9 142.1 Q36.6 145.65 36.15 147 L35.05 151 Q34.35 152.65 33.2 153.45 L37 156.05 Q41.65 159.55 41.65 160.4 L41.7 161.2 L41.15 162.75 Q39.6 164.95 34.4 164.95 Q29.25 164.95 24.7 161.85 Q20.65 159 16.15 159.7 L16.15 151.1 L22.9 134.5 Q25.6 127.8 27.2 122.65 L24.5 124.65 Q19.15 127.95 15.8 127.95 Q11.35 127.95 4.45 120.1 L-2.15 112.05 L-7.7 115.75 L-14.5 114.65 L-15 108.95 Q-15 105.65 -7.7 97.15 L-6.05 95.25 L-6.1 95.7 L-6.05 96.1 L-6.85 97.8 Q-7.6 99.55 -8.35 100.25 Q-13.45 105.3 -13.45 108.95 L-12.95 113.05 Q-10.95 113.25 -9.6 114.1 Q-7.35 114.1 -3.15 111 L-4.45 109.75 L-3.4 109.5 L-2.45 110.5 L-0.75 109.05 L0.3 109.85 L-1.45 111.45 L13.05 125.9 Q18.25 125.9 23.35 122.8 Q28.85 119.5 28.85 115.5 Q28.85 113.85 28.15 112.45 Q27.35 111 27.35 109.1 Q27.35 106.65 30 98.65 Q32.9 89.8 35 87.95 Q34.7 89.9 31.9 98.6 Q29.2 106.85 29.2 107.7 Q29.2 110.2 30 111.65 Q30.85 113.05 30.85 115.9 Q30.85 118.1 29.4 120.2 Q28.8 125.15 17.55 151.5 L17.55 158.1 Q21.95 157.35 29.6 163.3 Q34.2 163.3 36.3 162.5 L40.1 161.1 Q39.3 158.7 34.35 155.45 L31.9 154.05 L30.6 154.2 L29.6 153.95 Q29.2 153.55 29.15 153.1 Q29.5 152.9 29.85 152.8 L29.2 152.3 L30.1 151.75 L31 152.15 L34.4 150.25 Q32.35 146.6 36.4 140.4 Q41.7 133.65 43.15 130.8 Q46.45 124.3 47.2 120.6 Q47.8 117.95 47.8 111.55 Q46.75 97 46.75 88.45 Q46.75 86.2 45.45 77.6 Q44.15 68.95 44.15 65.6 Q44.15 62.15 44.85 61.25 Q45.3 60.7 46.65 60.85 Q49.85 61.25 51.15 56.5 Q51.95 52.9 53.3 50.2 Q54.15 48.55 54.15 45.2 Q54.15 43.05 55.9 39.65 Q57.6 36.2 57.6 34 Q57.6 32.05 55.85 30.55 Q52.85 27.95 51.05 25.2 Q48.8 32.3 46.4 32.3 Q38.05 32.3 35.05 26.85 Q34.1 25.15 33.8 23.05 L33.7 21.2 L33.7 20.45 L28.25 24 L20 29.2 Q9.95 35.8 9.15 40.45 L6.5 51.5 Q4.55 59.35 4.55 62.75 Q4.55 63.2 6.8 67.85 Q9.25 72.9 9.95 76.95 Q10.45 80 10.45 90.35 Q10.45 95.45 10.05 98.15 Q10.95 99.05 11.25 100.05 L10.45 101.25 L9.1 101.65 L5.45 95.95 Q2.25 91.2 1.55 91.2 Q-1.15 91.2 -3 92.3 L-3.35 92.2 Z" fill="#b2b2b2" fill-rule="evenodd"/>
<path d="M-6.05 95.25 L-5.45 93.7 Q-4.6 92.2 -3.45 92.2 L-3.35 92.2 L-3 92.3 Q-1.15 91.2 1.55 91.2 Q2.25 91.2 5.45 95.95 L9.1 101.65 L10.45 101.25 L11.25 100.05 Q10.95 99.05 10.05 98.15 Q10.45 95.45 10.45 90.35 Q10.45 80 9.95 76.95 Q9.25 72.9 6.8 67.85 Q4.55 63.2 4.55 62.75 Q4.55 59.35 6.5 51.5 L9.15 40.45 Q9.95 35.8 20 29.2 L28.25 24 L33.7 20.45 L33.7 21.2 L33.8 23.05 Q34.1 25.15 35.05 26.85 Q38.05 32.3 46.4 32.3 Q48.8 32.3 51.05 25.2 Q52.85 27.95 55.85 30.55 Q57.6 32.05 57.6 34 Q57.6 36.2 55.9 39.65 Q54.15 43.05 54.15 45.2 Q54.15 48.55 53.3 50.2 Q51.95 52.9 51.15 56.5 Q49.85 61.25 46.65 60.85 Q45.3 60.7 44.85 61.25 Q44.15 62.15 44.15 65.6 Q44.15 68.95 45.45 77.6 Q46.75 86.2 46.75 88.45 Q46.75 97 47.8 111.55 Q47.8 117.95 47.2 120.6 Q46.45 124.3 43.15 130.8 Q41.7 133.65 36.4 140.4 Q32.35 146.6 34.4 150.25 L31 152.15 L30.1 151.75 L29.2 152.3 L29.85 152.8 Q29.5 152.9 29.15 153.1 Q29.2 153.55 29.6 153.95 L30.6 154.2 L31.9 154.05 L34.35 155.45 Q39.3 158.7 40.1 161.1 L36.3 162.5 Q34.2 163.3 29.6 163.3 Q21.95 157.35 17.55 158.1 L17.55 151.5 Q28.8 125.15 29.4 120.2 Q30.85 118.1 30.85 115.9 Q30.85 113.05 30 111.65 Q29.2 110.2 29.2 107.7 Q29.2 106.85 31.9 98.6 Q34.7 89.9 35 87.95 Q32.9 89.8 30 98.65 Q27.35 106.65 27.35 109.1 Q27.35 111 28.15 112.45 Q28.85 113.85 28.85 115.5 Q28.85 119.5 23.35 122.8 Q18.25 125.9 13.05 125.9 L-1.45 111.45 L0.3 109.85 L-0.75 109.05 L-2.45 110.5 L-3.4 109.5 L-4.45 109.75 L-3.15 111 Q-7.35 114.1 -9.6 114.1 Q-10.95 113.25 -12.95 113.05 L-13.45 108.95 Q-13.45 105.3 -8.35 100.25 Q-7.6 99.55 -6.85 97.8 L-6.05 96.1 L-6.1 95.7 L-6.05 95.25 Z" fill="#ffffff" fill-rule="evenodd"/>
<path d="M34.45 18.7 Q32.85 12.7 32.9 10.35 Q32.9 5.85 34.7 6.7 Q34.9 4.9 36.5 3.15 Q37.85 1.65 37.5 -0.25 L38 -0.55 Q38.55 -0.55 39.4 0.35 L43.5 -1.6 L43.95 -1.3 Q44.25 -0.95 45.95 -0.95 Q49.25 -0.95 54.85 9.25 Q54.85 10.75 54.2 11.45 Q53.75 11.9 52.95 12 L52.8 12.1 L52.7 12 L52.65 11.4 L53.5 9.95 L53.7 9.5 Q53.7 7.7 49.45 3.85 Q45.15 -0.05 42.95 -0.05 Q41 -0.1 40.4 1 Q39.85 2.1 39.25 2.1 Q38.85 2.1 38.45 1.3 L37.85 3.35 Q37.35 4.65 35.9 4.65 Q36.6 8.35 35.05 9.15 L34.1 7.95 L34 10.25 L34.1 12.8 L34.9 15.5 L35.15 16.4 L35.15 18.75 L34.6 19.25 L34.45 18.7 Z" fill="#584f3d" fill-rule="evenodd"/>
<path d="M54.2 11.45 Q54.55 12.8 54.55 15.1 Q54.55 19.05 53.35 19.55 Q54.1 21.3 54.1 22.3 Q49.5 33 46.65 33.05 Q45.05 33.05 42.95 31.85 L42.2 31.35 L41.5 31.45 Q36.85 31.45 35.2 25.4 L34.45 19.1 L34.45 18.7 L34.6 19.25 L35.15 18.75 L35.15 16.4 L34.9 15.5 Q35.35 14.05 36.35 13.75 Q37.05 14.45 37.4 15.65 L37.85 14.35 Q38.95 11.6 40.7 11.6 Q42.15 11.6 42.4 13.75 L45.25 13.15 Q47.65 13.1 48.7 13.85 Q51.35 13.85 52 12.3 L53.1 12.9 L52.8 12.1 L52.95 12 Q53.75 11.9 54.2 11.45 Z M53.5 9.95 L52.65 11.4 L52.7 12 L52.5 11.9 Q52.2 12 52.2 11 Q52.2 9.7 53.5 9.95 Z M41.25 15 Q41.25 13.55 40.9 13.05 Q38.95 13.95 38.8 15.7 Q38.6 17.2 37.75 17.9 L37.75 18.45 Q37.65 18.7 37 18.85 L35.95 15 Q35.55 16.4 35.6 18.9 Q35.55 21.7 37.15 25.6 Q38.7 29.4 41.05 30.5 L40.1 29.4 L40.1 29 L40.7 28.85 Q41.65 28.8 43.55 30.35 Q45.45 31.85 46.1 31.85 Q49.15 31.85 52.95 22.5 Q52.2 20.4 52.2 19.45 Q53.2 16.25 53.25 14.95 L53.15 13.15 L51.1 14.95 L47.1 15.1 L41.25 15 Z M27.3 71.35 Q23.1 71.35 23.1 75.35 Q23.1 77.6 27.5 82.25 L33.65 88.8 Q34.1 88.65 35.95 86 Q37.9 83.2 37.9 82.35 Q37.9 78.35 33.65 75.6 Q28.45 72.2 27.8 71.35 L27.3 71.35 Z M27.95 69.2 Q28.3 70 34.05 75.3 Q39.3 80.05 39.3 82.25 Q35.6 90.15 33.8 90.15 Q32.6 90.15 30.05 86.95 L26.45 82.25 Q22.8 80.1 22.2 79 Q21.8 78.25 21.8 75.2 Q21.8 72.55 22.2 72.1 Q22.9 71.3 27.95 69.2 Z M49.15 60.7 L53 68.8 Q53.45 69.65 53.45 74.5 Q51.35 81.75 49.9 81.75 Q48.25 81.75 46.05 73.6 L44.15 65.4 Q45.05 63.4 45.4 61.7 L48.6 61.75 L49.15 60.7 Z M46.95 72 Q48.65 78.4 49.85 80.1 L51.9 75.75 Q52.2 74.75 52.2 71.75 Q52.2 71 48.2 62.95 Q47.5 62.95 46.4 64.2 Q45.45 65.25 45.45 65.5 Q45.45 66.35 46.95 72 Z" fill="#ab8869" fill-rule="evenodd"/>
<path d="M34.9 15.5 L34.1 12.8 L34 10.25 L34.1 7.95 L35.05 9.15 Q36.6 8.35 35.9 4.65 Q37.35 4.65 37.85 3.35 L38.45 1.3 Q38.85 2.1 39.25 2.1 Q39.85 2.1 40.4 1 Q41 -0.1 42.95 -0.05 Q45.15 -0.05 49.45 3.85 Q53.7 7.7 53.7 9.5 L53.5 9.95 Q52.2 9.7 52.2 11 Q52.2 12 52.5 11.9 L52.7 12 L52.8 12.1 L53.1 12.9 L52 12.3 Q51.35 13.85 48.7 13.85 Q47.65 13.1 45.25 13.15 L42.4 13.75 Q42.15 11.6 40.7 11.6 Q38.95 11.6 37.85 14.35 L37.4 15.65 Q37.05 14.45 36.35 13.75 Q35.35 14.05 34.9 15.5 Z" fill="#756951" fill-rule="evenodd"/>
<path d="M40.9 13.05 Q41.25 13.55 41.25 15 L47.1 15.1 L51.1 14.95 L53.15 13.15 L53.25 14.95 Q53.2 16.25 52.2 19.45 Q52.2 20.4 52.95 22.5 Q49.15 31.85 46.1 31.85 Q45.45 31.85 43.55 30.35 Q41.65 28.8 40.7 28.85 L40.1 29 L40.1 29.4 L41.05 30.5 Q38.7 29.4 37.15 25.6 Q35.55 21.7 35.6 18.9 Q35.55 16.4 35.95 15 L37 18.85 Q37.65 18.7 37.75 18.45 L37.75 17.9 Q38.6 17.2 38.8 15.7 Q38.95 13.95 40.9 13.05 Z M23.1 75.35 Q23.1 71.35 27.3 71.35 L27.8 71.35 Q28.45 72.2 33.65 75.6 Q37.9 78.35 37.9 82.35 Q37.9 83.2 35.95 86 Q34.1 88.65 33.65 88.8 L27.5 82.25 Q23.1 77.6 23.1 75.35 Z M49.85 80.1 Q48.65 78.4 46.95 72 Q45.45 66.35 45.45 65.5 Q45.45 65.25 46.4 64.2 Q47.5 62.95 48.2 62.95 Q52.2 71 52.2 71.75 Q52.2 74.75 51.9 75.75 L49.85 80.1 Z" fill="#dec8a9" fill-rule="evenodd"/>
<path d="M26.35 44.95 Q26 45.65 25.15 49.5 Q24.5 52.5 23.2 53.95 Q22.15 53.3 22.2 49.95 Q22.15 48.35 23.2 46.1 Q24.6 43.15 26.65 43.15 Q27.4 43.15 27.75 43.95 Q28.05 44.75 31.75 44.75 L32.4 44.95 L32.6 45.5 Q32.6 46.5 29.45 46.5 Q26.85 46.5 26.55 46.05 L26.35 44.95 Z M24.05 47.2 L23.5 48.05 L23.5 50.15 L23.6 50.15 L24.15 47.1 L24.05 47.2 Z M-7.05 113.15 Q-10.05 113.1 -11 111.35 L-11.4 109.45 Q-11.4 106.3 -9.3 106.1 Q-10.35 107.5 -10.35 108.15 Q-10.35 109.8 -9.9 110.65 Q-8.8 112.45 -5.5 110.9 Q-4.8 111.15 -4.65 111.65 Q-6.55 113.1 -7.05 113.15 Z" fill="#eaeedd" fill-rule="evenodd"/>
<path d="M53.6 38.35 Q53.6 40.5 51.9 49.15 L50.5 48.85 Q49.25 55.35 42.15 63.65 Q41.2 62.65 41.2 61.85 Q41.2 60.45 45.65 49.95 Q50.15 39.35 50.8 39.35 L51.05 38.9 Q51.45 38.35 52.75 37.95 L53.2 37.8 Q53.6 37.75 53.6 38.35 Z M47 51.55 L47.2 53.15 L47.2 53.25 L47.85 49.95 L47.55 49.95 Q46.95 49.9 46.95 50.35 L47 51.55 Z M42.8 127.05 L43.3 127.15 Q43.6 127.1 44.15 127.9 L39.8 137.5 Q37.1 143.05 34 146.1 Q33.55 145.6 33.55 145.2 Q33.55 144.5 34.75 142.5 Q35.9 140.45 35.9 138.45 Q35.9 134.7 38.6 128.95 Q41.5 122.8 44.25 122.05 L44.45 122 L44.6 122.65 Q44.6 123.2 42.8 127.05 Z" fill="#c7d6d8" fill-rule="evenodd"/>
<path d="M1.75 91.4 L2 91.5 L2.25 92.5 L0.1 94.45 Q-1.05 97.2 -3.05 100.05 L-3.05 100.15 L-2.85 108.75 Q-2.85 110.3 -9.75 113.35 Q-13.8 113.35 -12.75 110.25 Q-12.75 102.95 -4.25 95.8 Q-3.05 92.25 -1.1 92.25 L0.1 92.5 L1.75 91.4 Z M24.85 152.45 L28.15 153.1 Q30.75 153.4 32.65 154.2 Q38.7 156.7 38.7 159.5 Q38.7 162.05 38.4 162.9 Q37.8 164.75 35.65 164.75 Q32.9 164.75 17.25 154.8 Q17.25 153.15 18.25 151.6 Q19.45 149.7 21.2 149.7 Q22.25 149.7 24.85 152.45 Z" fill="#333333" fill-rule="evenodd"/>
</svg>
