<svg xmlns="http://www.w3.org/2000/svg" viewBox="-86.3 -185.35 171.89999999999998 370.75" width="171.89999999999998" height="370.75">
<path d="M12.3 -129.85 Q12.3 -128.55 10.25 -128.55 Q3.55 -128.55 -0.25 -129.8 L-3.5 -131.35 L-7.5 -132 L-18.6 -132 Q-19.3 -132.6 -19.3 -133.8 Q-18.2 -138.45 -18.2 -139.55 L-20 -142.2 Q-20 -145.3 -19.55 -146.35 Q-18.85 -148.2 -18.25 -152.1 L-18.1 -152.1 L-18.5 -152.55 L-18 -152.65 Q-13.15 -152.65 -1.95 -148.95 Q6 -146.35 10.8 -144.2 L11.5 -144.45 L11.4 -143.95 L11.85 -143.75 L12 -143.15 Q11.85 -142.7 11.1 -142.55 L9.75 -136.25 Q9.75 -135.1 12.3 -129.85 Z M-53.95 -127.15 L-53.95 -127.05 L-53.95 -126.8 Q-53.95 -125.65 -59.55 -111.75 Q-60.25 -109.3 -60.35 -104.2 Q-61 -101.6 -61.8 -99.7 Q-62.2 -98.85 -62.2 -96.8 L-62.1 -93.3 Q-57.4 -94.8 -55 -86.9 Q-55 -83.75 -53.85 -77.8 L-54.05 -74.9 L-53.95 -74.9 L-53.55 -74.05 Q-53.6 -73.8 -54.15 -73.75 L-54.2 -73.5 L-54.85 -73.05 L-55.25 -73.75 L-67.9 -73.5 L-71.25 -73.1 Q-81.45 -73.1 -84.9 -75.1 Q-85.95 -75.75 -86.25 -76.5 L-86.3 -77.15 Q-86.3 -82.55 -84 -92.9 Q-82 -101.7 -80.2 -106.6 Q-79.45 -108.65 -76.4 -113.85 Q-73.25 -119.15 -72.45 -121.4 Q-70.35 -131.95 -66.75 -135.45 L-66.2 -135 L-66.6 -134.45 L-65.95 -134.5 L-61.25 -131.5 Q-56.45 -128.25 -54.1 -127.45 L-53.95 -127.15 Z M-54.3 -133.4 Q-54.3 -134.15 -53.75 -134.15 L-49 -134.55 L-31.2 -132.95 Q-28.25 -132.6 -27.5 -132 Q-27.15 -131.7 -27.15 -130.7 Q-29.25 -122.6 -29.55 -122.6 Q-46.4 -122.6 -49.55 -124.2 Q-50.6 -124.75 -50.75 -125.85 Q-50.95 -127.15 -51.4 -127.65 Q-52.55 -128.9 -53 -131.1 Q-53.35 -132.95 -54.3 -133.4 Z M-18.15 -133.2 L-16.75 -133.25 L-18.2 -133.95 L-18.15 -133.2 Z" fill="#b8a074" fill-rule="evenodd"/>
<path d="M14.5 -128.5 L14.7 -130.25 L15.45 -130.3 L15.45 -130.25 L15.45 -128.95 Q15.45 -126.2 12.3 -126.2 Q5.2 -126.2 0.65 -128.15 L-4.15 -130.1 L-5.65 -130.05 L-4.95 -130.55 L-5.15 -130.95 L-1.5 -130.25 L0.45 -129.35 L1.25 -129.1 L2.5 -128.5 Q4.55 -127.7 6.75 -127.3 L8.25 -127.15 L8.4 -127.15 L9.9 -127.1 L12.55 -127.3 L13.55 -127.5 L14.3 -128.15 L14.5 -128.5 Z M15.6 -130.25 L15.9 -130.3 Q16.65 -130.3 19.3 -128.6 Q22.6 -126.5 22.65 -124.4 Q22.7 -122.4 24.05 -120.45 Q25.35 -118.55 25.35 -117.55 Q25.35 -108.4 24.7 -99 L23.95 -99.45 L23.85 -115.05 Q24.45 -116.7 24.45 -117.45 Q24.45 -118.65 23.1 -120.3 Q21.75 -121.95 21.75 -124.1 Q21.75 -126.4 19.15 -127.55 Q16.15 -128.85 15.6 -130.25 Z M23.75 -88.95 Q22.55 -78.05 20.55 -73 Q19.5 -70.35 17.7 -62 Q16.15 -55 13.8 -50.75 Q12.95 -49.15 10.5 -39.85 Q8.1 -30.55 8.1 -28.8 L8 -27.45 Q9.4 -25.2 10.1 -15.95 Q10.1 -14.4 9.15 -11.4 Q8.15 -8.15 8 -5.95 L7.55 3.5 Q7.55 9.85 8 22.35 Q8 26.55 0.85 50.95 Q-6.3 75.5 -9.6 82.35 Q-8.05 86 -8.05 90.7 Q-8.05 94.2 -13.1 112.65 Q-16.8 126.3 -19.85 133.6 L-19.85 133.65 L-19.75 133.6 L-19.45 134.05 Q-20.4 134.7 -20.75 135.15 L-21.45 135.3 L-20.35 133.05 Q-17.65 127.6 -17.65 125.15 Q-17.65 123.45 -15.25 115.75 L-12.9 107.75 Q-12.85 100.35 -11 97.1 Q-9.1 93.85 -9.1 90.5 Q-9.1 83.4 -11.65 82.55 Q-7.2 74.95 -4 63.85 Q-0.85 51.2 1.05 44.8 Q5.7 32.45 6.85 25.8 Q7.55 21.95 7.1 14.35 L6.5 6.8 L6.5 -4.6 Q6.95 -6.5 6.95 -10.3 Q6.45 -11.35 7.7 -13.15 Q9.05 -15.25 9.05 -15.85 Q9.05 -17.2 6.5 -17.9 L8.45 -19.8 Q8.75 -20.2 8.75 -21.4 L7.9 -26.3 L7.6 -26.15 Q7.05 -25.3 6 -25.3 L5.4 -25.45 L5.85 -26.15 L2.1 -26.55 L6.3 -26.85 Q7.05 -28.25 7.05 -28.75 Q6.35 -29.3 5.85 -30.2 Q8.1 -33.3 9.4 -40.15 Q10.85 -47.75 12.6 -51.1 Q15.05 -55.65 16.7 -61.9 L19.35 -72.5 Q22.1 -82.6 23.25 -89.35 L23.75 -88.95 Z M-40.2 127.45 Q-40.9 127.3 -41.1 126.9 L-41.15 126.4 L-41.3 126.75 L-41.8 126.75 Q-42 127.3 -42 126.3 L-41.15 116.75 Q-44.3 107.1 -48.6 90.9 Q-55.2 66 -55.2 57.95 Q-55.2 55.95 -54.15 51.15 Q-53.1 46.35 -53.1 44.8 Q-53.1 43.25 -55 38.15 L-59.15 26.7 Q-65.25 8.25 -65.25 -9.45 Q-65.25 -12 -63.1 -20.3 L-61.35 -26.55 L-61.55 -26.55 Q-61.75 -26.2 -61.75 -27.2 L-61.5 -31.1 Q-61 -34.35 -59.75 -35.75 Q-61.15 -36.45 -61.65 -37.85 L-61.8 -40.9 Q-61.8 -47.8 -58.5 -49.35 Q-56.85 -49.95 -56.25 -50.4 Q-55.2 -51.1 -55.2 -52.9 L-56.4 -62.5 Q-56.4 -71.55 -54.6 -72.25 L-53.65 -72.25 L-53.55 -72.95 L-53.5 -73.05 L-53.45 -73.3 Q-52.9 -73.35 -52.85 -73.6 Q-53.25 -74.15 -53.25 -74.45 L-53.35 -74.45 L-53.3 -74.65 L-53.3 -74.7 L-52.95 -78.4 L-52.95 -79.75 L-52.9 -83.2 L-52.8 -85 Q-51.7 -75.85 -52.35 -72.5 Q-43 -74.4 -40.7 -79.5 Q-39.6 -85.45 -37.45 -88 L-36.85 -88 L-36.75 -87.1 Q-36.75 -86.55 -40.6 -76.55 L-31.35 -84.7 L-31.05 -84.25 Q-31.05 -83.4 -35.05 -78.65 L-35.1 -78.4 L-34.95 -78.45 Q-26.25 -81.55 -23.1 -83.35 L-22.65 -82.9 Q-23.85 -81.5 -29.05 -79.5 L-36.55 -76.7 Q-36.75 -76.4 -36.75 -77.15 L-36 -78.7 L-36 -78.85 Q-36.5 -78.25 -38.3 -77.05 Q-40.25 -75.8 -41.35 -75.5 Q-41.55 -75.7 -41.55 -76.4 Q-43.1 -74.6 -46.25 -72.95 Q-49.75 -71.15 -52.5 -71.15 L-53.15 -71.25 Q-55.35 -69.6 -55.35 -65.65 Q-55.35 -62.4 -54.75 -59.9 Q-54.15 -57.4 -54.15 -52.85 Q-54.15 -50.35 -55.2 -49.4 Q-55.6 -49.05 -57.45 -48.4 Q-60.75 -47.2 -60.75 -40.95 L-60.6 -38.3 Q-59.9 -36.4 -56.55 -36.4 L-48.75 -38.05 L-37 -36.4 Q-29 -35.3 -27.15 -36.55 Q-23.05 -36.55 -22.65 -35.95 L-34.05 -34.9 L-37.35 -35.3 L-42.4 -35.95 L-47.4 -36.55 L-48.75 -36.85 L-56.55 -35.2 L-58.8 -35.45 Q-58.85 -32.1 -60.25 -28.45 L-60.15 -28.15 L-62.15 -19.8 Q-64.2 -11.25 -64.2 -9.6 Q-64.2 7.95 -58 26.35 L-53.8 37.95 L-53.05 40.05 Q-51.95 43.35 -51.85 44.95 L-51.85 45.15 Q-51.85 47.15 -52.9 51.65 Q-53.95 56.1 -53.95 58.1 Q-53.95 61.5 -48.15 85.5 Q-43.7 103.95 -40.9 112.75 L-40.8 113.15 L-40.75 112.65 Q-39.5 101.05 -39.5 97 Q-39.5 96.25 -40.75 94.05 Q-42 91.85 -42 90.2 Q-40.35 86.25 -40.35 85.6 Q-41.15 84.25 -41.15 83.25 Q-41.15 81.95 -40.5 80.6 Q-39.75 79.05 -38.95 79.9 L-40.2 82.15 Q-40.2 83.15 -39.25 85.6 Q-39.25 86.25 -40.95 90.2 Q-40.95 91.5 -39.7 93.7 Q-38.45 95.9 -38.45 97 L-39.15 109.05 L-39.25 117.6 L-39.15 117.8 L-39.15 120.35 L-39.6 120.75 Q-40 123.35 -40.8 125.5 Q-40.65 126 -40.65 126.7 L-39.95 126.7 L-40.1 126.95 L-40 127.25 L-40.2 127.45 Z M-64.3 -139.85 Q-65.55 -140.8 -65.55 -141.8 L-65.55 -142.05 L-65.45 -143.25 L-65 -143.7 Q-63.95 -145.8 -61 -150.1 Q-55.95 -157.4 -52.95 -157.4 Q-51.75 -157.4 -48.95 -155.55 Q-46.15 -153.7 -45 -153.7 Q-42.5 -153.7 -42.3 -150.95 L-41.25 -150.9 L-40.5 -153.05 Q-39.15 -155.9 -37.05 -155.9 Q-33.6 -155.9 -33.3 -150.45 Q-33.3 -148.35 -36.15 -146.15 Q-37.45 -146.25 -37.65 -146.6 Q-36.2 -147.1 -35.3 -147.85 L-35.25 -147.9 Q-34.2 -148.95 -34.2 -150.4 Q-34.2 -151.25 -34.75 -152.8 Q-35.55 -154.9 -36.55 -154.9 Q-38.6 -154.9 -39.65 -152.8 Q-40.15 -151.85 -40.25 -150.85 L-39.2 -150.5 Q-38.95 -150.25 -38.95 -149.5 L-38.4 -148.1 L-38.95 -147.7 L-41.15 -149.8 L-41.5 -149.95 L-41.45 -150.05 L-44.35 -152.6 Q-44.75 -152.95 -46.4 -152.2 Q-47.75 -151.6 -48.15 -153.05 Q-48.3 -154.15 -48.6 -154.45 L-52.05 -156.4 Q-55.35 -156.4 -60.15 -149.35 L-63.5 -144.1 L-63.45 -143.95 Q-63.45 -143.55 -64.25 -142.5 L-64.35 -142 L-64.25 -141.65 L-62.85 -140.5 Q-63.6 -140.5 -64.3 -139.85 Z M-35.9 -144.9 L-33.3 -145.15 L-31.3 -145.75 Q-28.9 -145.75 -27.6 -144.75 Q-25.6 -143.25 -24.4 -142.85 Q-21.55 -141.8 -20.05 -139.9 Q-19.5 -139.15 -18.75 -136.8 L-18.2 -134.9 L-18 -133.3 L-18.4 -132.2 L-18.5 -131.9 L-18.9 -130.85 Q-19.85 -128.45 -20.85 -126.75 L-21.95 -127.45 L-21.05 -128.65 L-19.95 -130.45 L-19.75 -130.85 L-19.25 -132.1 L-18.9 -133.15 Q-18.9 -134.1 -19.75 -136.5 Q-20.55 -138.9 -21.25 -139.9 Q-21.9 -140.85 -26 -142.6 Q-30.6 -144.55 -33.45 -144.4 L-36 -144.4 Q-35.85 -144.55 -35.95 -144.9 L-35.9 -144.9 Z M-24.65 -123.25 L-24.95 -123.25 L-26 -122.85 L-25.8 -123.25 L-26.8 -123.25 L-28.35 -123.35 L-29.65 -123.6 L-30.3 -123.85 Q-31.5 -124.45 -32.85 -124.45 Q-34.5 -124.45 -34.5 -126.85 Q-37.45 -125.1 -39.75 -128.9 Q-40.5 -130.05 -41.15 -131.75 L-41.3 -132.1 L-41.3 -132.15 L-41.5 -132.1 L-43.6 -131.7 L-47.95 -131.25 L-49.95 -131.2 L-50.1 -131.9 L-50.85 -131.9 L-51.25 -131.25 L-51.95 -131.3 L-52.5 -131.4 Q-54.95 -131.95 -56.5 -133.65 Q-58.2 -136.3 -58.95 -136.75 L-61.55 -138.15 L-60.1 -136.85 Q-60.05 -136.7 -60.25 -136.65 L-62 -138 L-62.75 -138.8 L-63.5 -139.3 L-62.7 -140.35 L-52.85 -132.2 L-52.8 -132.2 L-52.6 -132.2 L-52.55 -132.2 L-52.05 -131.75 L-51.9 -131.75 Q-51.35 -131.75 -51.6 -131.9 L-51.45 -132.2 L-48.35 -132.25 L-41.45 -133 L-41.15 -133.65 L-40.95 -133.65 L-40.95 -133.7 Q-40.35 -133.85 -40 -134.6 L-39.15 -135.4 L-38.4 -135.4 L-38.1 -134.95 L-39.5 -133.9 L-39.95 -133.55 L-40.3 -133.25 L-39.3 -133.5 Q-37 -134.25 -36.2 -135.35 Q-35.8 -135.9 -35.75 -136.65 L-35.7 -134.35 Q-36.65 -133.8 -37.7 -133.35 Q-39 -132.8 -40.35 -132.4 L-40.2 -132.05 L-40 -131.7 L-39.05 -130.15 L-38.1 -128.75 Q-37.7 -127.3 -35.55 -127.6 Q-33.6 -127.85 -33.3 -125.65 L-31.9 -125.95 Q-30.7 -125.95 -29.7 -125.1 L-28.85 -124.4 L-28.5 -124.25 L-28.05 -124.25 L-26.35 -124.5 L-25.25 -124.9 L-23.35 -126.1 L-23.95 -123.5 L-24.65 -123.25 Z M-26.9 -122.5 L-30.35 -121.2 Q-34.7 -119.35 -36.45 -117.4 L-38.4 -113.85 Q-39.65 -111.35 -41.65 -110.45 Q-53.35 -105 -55.1 -103.95 Q-61.2 -100.45 -61.2 -97.3 Q-61.2 -93.85 -59.65 -93.6 Q-56.7 -93.2 -54.9 -91.3 Q-54.05 -90.4 -53.5 -88.6 Q-55.15 -93.2 -60.4 -93.4 L-60.55 -93.5 L-61.45 -94.7 L-61.5 -96.35 Q-61.5 -98.4 -61.1 -99.25 L-60.4 -101.15 Q-56.5 -105.85 -42.9 -110.75 Q-40.3 -111.65 -39.1 -113.9 Q-38 -116.55 -37 -117.8 Q-35.95 -119.05 -30.95 -121.4 L-29.25 -122.15 L-28.85 -122.15 L-28.7 -122.4 Q-27.7 -122.8 -26.85 -123.15 L-27 -122.9 L-26.9 -122.5 Z M-9.75 -130.4 L-8.05 -129.8 Q-12.8 -129.1 -18.05 -126.7 L-19.6 -126 L-20.55 -126.6 L-18.85 -127.45 Q-14.6 -129.55 -9.75 -130.4 Z M-35.9 -138.05 L-36.3 -140.35 L-35.95 -140.35 L-35.8 -137.5 L-35.9 -138.05 Z" fill="#8492ac" fill-rule="evenodd"/>
<path d="M15.45 -130.25 L15.6 -130.25 Q16.15 -128.85 19.15 -127.55 Q21.75 -126.4 21.75 -124.1 Q21.75 -121.95 23.1 -120.3 Q24.45 -118.65 24.45 -117.45 Q24.45 -116.7 23.85 -115.05 L23.95 -99.45 L12.05 -106.75 L14.35 -107.65 Q17.9 -109.15 19.25 -110.8 Q13.75 -111.55 10.05 -107.2 L-19.6 -126 L-18.05 -126.7 Q-12.8 -129.1 -8.05 -129.8 Q-6.75 -129.45 -5.65 -130.05 L-4.15 -130.1 L0.65 -128.15 Q5.2 -126.2 12.3 -126.2 Q15.45 -126.2 15.45 -128.95 L15.45 -130.25 Z M-36.15 -146.15 L-35.9 -144.9 L-35.95 -144.9 Q-35.85 -144.55 -36 -144.4 L-33.45 -144.4 Q-30.6 -144.55 -26 -142.6 Q-21.9 -140.85 -21.25 -139.9 Q-20.55 -138.9 -19.75 -136.5 Q-18.9 -134.1 -18.9 -133.15 L-19.25 -132.1 L-19.75 -130.85 L-19.95 -130.45 L-20.2 -130.55 L-20.05 -130.85 L-19.65 -132.2 L-19.6 -133.35 Q-19.6 -134.75 -23.5 -135.25 Q-22.65 -138.8 -33.45 -140.2 L-33.85 -140.2 Q-33.85 -139.35 -34.3 -138.65 Q-34.8 -137.95 -34.8 -137.3 Q-34.05 -137.05 -32.75 -135.5 Q-31.6 -134.2 -30.1 -134.2 L-29.1 -134.75 L-29.05 -134.5 L-29.05 -133.4 Q-27.8 -133.95 -25.8 -132.15 L-25.55 -131.95 L-23.8 -130.45 Q-22.65 -129.65 -21.9 -129.65 L-21.05 -128.65 L-21.95 -127.45 L-22.9 -128.05 L-23.35 -126.1 L-25.25 -124.9 L-26.35 -124.5 L-28.05 -124.25 L-28.5 -124.25 L-28.85 -124.4 L-29.7 -125.1 Q-30.7 -125.95 -31.9 -125.95 L-33.3 -125.65 Q-33.6 -127.85 -35.55 -127.6 Q-37.7 -127.3 -38.1 -128.75 L-39.05 -130.15 L-40 -131.7 L-40.2 -132.05 L-40.35 -132.4 Q-39 -132.8 -37.7 -133.35 Q-36.65 -133.8 -35.7 -134.35 L-35.75 -136.65 Q-35.8 -135.9 -36.2 -135.35 Q-37 -134.25 -39.3 -133.5 L-40.3 -133.25 L-39.95 -133.55 L-39.5 -133.9 L-38.1 -134.95 L-38.4 -135.4 L-39.15 -135.4 L-40 -134.6 Q-39.7 -135.35 -39.7 -136.65 Q-39.7 -138.75 -40.65 -139.4 Q-43.4 -140.7 -46.95 -143.2 Q-47.3 -146.15 -49.3 -145.75 L-54.6 -145.15 L-54.65 -145.1 L-54.75 -145.15 Q-58.9 -144.25 -58.9 -141.8 L-53.5 -133.45 L-52.65 -132.3 L-52.8 -132.2 L-52.85 -132.2 L-62.7 -140.35 L-62.65 -140.5 L-62.85 -140.5 L-64.25 -141.65 L-64.35 -142 L-64.25 -142.5 Q-63.45 -143.55 -63.45 -143.95 L-63.5 -144.1 L-60.15 -149.35 Q-55.35 -156.4 -52.05 -156.4 L-48.6 -154.45 Q-48.3 -154.15 -48.15 -153.05 Q-47.75 -151.6 -46.4 -152.2 Q-44.75 -152.95 -44.35 -152.6 L-41.45 -150.05 L-41.5 -149.95 L-41.15 -149.8 L-38.95 -147.7 L-38.4 -148.1 L-38.95 -149.5 Q-38.95 -150.25 -39.2 -150.5 L-40.25 -150.85 Q-40.15 -151.85 -39.65 -152.8 Q-38.6 -154.9 -36.55 -154.9 Q-35.55 -154.9 -34.75 -152.8 Q-34.2 -151.25 -34.2 -150.4 L-34.9 -149.05 L-35.85 -149.35 L-37 -148.7 L-37.75 -147.8 L-37.8 -147.6 L-37.65 -146.6 Q-37.45 -146.25 -36.15 -146.15 Z M9.85 -115.35 Q14.75 -115.35 17.6 -117.05 Q19.7 -118.3 19.7 -119.35 L19.45 -119.85 Q19 -119.9 18.75 -119.4 Q18.45 -118.6 17.95 -118.15 Q15.65 -116.3 6.8 -116.3 Q3.2 -116.3 -1.1 -119.5 L-1.75 -119.15 L1.75 -117.2 Q5.5 -115.35 9.85 -115.35 Z M8.1 -101.7 L8.65 -101.15 L23.25 -89.35 Q22.1 -82.6 19.35 -72.5 L16.7 -61.9 Q15.05 -55.65 12.6 -51.1 Q10.85 -47.75 9.4 -40.15 Q8.1 -33.3 5.85 -30.2 Q6.35 -29.3 7.05 -28.75 Q7.05 -28.25 6.3 -26.85 L2.1 -26.55 L5.85 -26.15 L5.4 -25.45 L6 -25.3 Q7.05 -25.3 7.6 -26.15 L7.9 -26.3 L8.75 -21.4 Q8.75 -20.2 8.45 -19.8 L6.5 -17.9 Q9.05 -17.2 9.05 -15.85 Q9.05 -15.25 7.7 -13.15 Q6.45 -11.35 6.95 -10.3 Q6.95 -6.5 6.5 -4.6 L6.5 6.8 L7.1 14.35 Q7.55 21.95 6.85 25.8 Q5.7 32.45 1.05 44.8 Q-0.85 51.2 -4 63.85 Q-7.2 74.95 -11.65 82.55 Q-9.1 83.4 -9.1 90.5 Q-9.1 93.85 -11 97.1 Q-12.85 100.35 -12.9 107.75 L-15.25 115.75 Q-17.65 123.45 -17.65 125.15 Q-17.65 127.6 -20.35 133.05 L-21.45 135.3 L-22.2 135.8 Q-23 131.9 -24.5 129.35 Q-27.4 124.45 -33.8 124.45 Q-34.95 124.45 -37.5 125.4 Q-39.5 126.15 -39.95 126.7 L-40.65 126.7 Q-40.65 126 -40.8 125.5 Q-40 123.35 -39.6 120.75 L-39.15 120.35 L-39.15 117.8 L-39.25 117.6 L-39.15 109.05 L-38.45 97 Q-38.45 95.9 -39.7 93.7 Q-40.95 91.5 -40.95 90.2 Q-39.25 86.25 -39.25 85.6 Q-40.2 83.15 -40.2 82.15 L-38.95 79.9 Q-39.75 79.05 -40.5 80.6 Q-41.15 81.95 -41.15 83.25 Q-41.15 84.25 -40.35 85.6 Q-40.35 86.25 -42 90.2 Q-42 91.85 -40.75 94.05 Q-39.5 96.25 -39.5 97 Q-39.5 101.05 -40.75 112.65 L-40.9 112.75 Q-43.7 103.95 -48.15 85.5 Q-53.95 61.5 -53.95 58.1 Q-53.95 56.1 -52.9 51.65 Q-51.85 47.15 -51.85 45.15 L-51.85 44.95 L-51.3 47.5 Q-51.3 49.15 -52.6 54.55 L-52.85 55.2 Q-52.95 55.9 -52.4 56.5 Q-51.85 57.1 -50.6 57.55 L-50.55 57.55 L-45 58.35 Q-46.35 61.85 -46.35 64.8 L-45.65 67.7 L-44.95 67.55 L-42.85 58.4 L-42.65 58.4 Q-39.95 58.4 -39.55 56.4 L-39.6 52.8 Q-39.6 51.4 -38.35 47.1 Q-37.15 42.8 -37.15 41.9 Q-37.15 41.25 -38.35 39.4 L-38.65 38.9 Q-37.95 35.1 -37.95 34.2 Q-37.95 32.7 -38.25 31.75 L-37.35 29.65 Q-35 24.55 -32.45 23 L-28.1 23.2 Q-21.9 23.2 -15.7 19.85 Q-12.4 18.05 -8.2 15.35 Q-10.45 15.65 -19.8 18.75 Q-25.75 20.75 -31.75 22 Q-32.2 21 -31.6 18.9 Q-30.95 16.65 -33.8 16.65 Q-35 16.65 -35.25 17.1 L-35.65 18.1 Q-36.6 19.55 -43.7 19.55 Q-49.05 19.55 -53.85 13 Q-57.95 6 -58.65 5.1 Q-60.3 6.1 -60.3 8.4 Q-60.3 11.65 -55.8 29.25 L-53.05 40.05 L-53.8 37.95 L-58 26.35 Q-64.2 7.95 -64.2 -9.6 Q-64.2 -11.25 -62.15 -19.8 L-60.15 -28.15 L-60.25 -28.45 Q-58.85 -32.1 -58.8 -35.45 L-56.55 -35.2 L-48.75 -36.85 L-47.4 -36.55 L-42.4 -35.95 L-37.35 -35.3 L-34.05 -34.9 L-22.65 -35.95 Q-23.05 -36.55 -27.15 -36.55 Q-29 -35.3 -37 -36.4 L-48.75 -38.05 L-56.55 -36.4 Q-59.9 -36.4 -60.6 -38.3 L-60.75 -40.95 Q-60.75 -47.2 -57.45 -48.4 Q-55.6 -49.05 -55.2 -49.4 Q-54.15 -50.35 -54.15 -52.85 Q-54.15 -57.4 -54.75 -59.9 Q-55.35 -62.4 -55.35 -65.65 Q-55.35 -69.6 -53.15 -71.25 L-52.5 -71.15 Q-49.75 -71.15 -46.25 -72.95 Q-43.1 -74.6 -41.55 -76.4 Q-41.55 -75.7 -41.35 -75.5 Q-40.25 -75.8 -38.3 -77.05 Q-36.5 -78.25 -36 -78.85 L-36 -78.7 L-36.75 -77.15 Q-36.75 -76.4 -36.55 -76.7 L-29.05 -79.5 Q-23.85 -81.5 -22.65 -82.9 L-23.1 -83.35 Q-26.25 -81.55 -34.95 -78.45 L-35.05 -78.65 Q-31.05 -83.4 -31.05 -84.25 L-31.35 -84.7 L-40.6 -76.55 Q-36.75 -86.55 -36.75 -87.1 L-36.85 -88 L-37.45 -88 Q-39.6 -85.45 -40.7 -79.5 Q-43 -74.4 -52.35 -72.5 Q-51.7 -75.85 -52.8 -85 Q-52.85 -86.7 -53.4 -88.35 L-53.5 -88.6 Q-54.05 -90.4 -54.9 -91.3 Q-56.7 -93.2 -59.65 -93.6 Q-61.2 -93.85 -61.2 -97.3 Q-61.2 -100.45 -55.1 -103.95 Q-53.35 -105 -41.65 -110.45 Q-39.65 -111.35 -38.4 -113.85 L-36.45 -117.4 Q-34.7 -119.35 -30.35 -121.2 L-26.9 -122.5 L-26.65 -122.15 L-26 -122.85 L-24.95 -123.25 L-24.65 -123.25 L-23.95 -123.5 L-24.25 -123 L8.1 -101.7 Z M11.2 -106.5 L11.75 -106.65 L11.5 -106.3 L11.2 -106.5 Z M-45.05 -42.7 L-43.3 -41.6 L-49.85 -41.25 Q-49.85 -40.45 -43.9 -40.45 L-41.1 -40.5 L-40.95 -40.45 L-36.1 -40.8 Q-29.5 -41.5 -22.8 -43.25 Q-15.45 -45.15 -13 -46.65 L-23.75 -43.95 L-25.05 -43.65 Q-18.85 -45.8 -11.4 -49.35 Q-4.45 -52.65 0.8 -55.95 Q5.8 -59 5.8 -59.85 Q5.8 -60.95 5.15 -61.05 L2.75 -61.1 Q0.9 -59.75 -3.4 -57.7 L-3.4 -58.05 Q-3.4 -59.1 -3.65 -59.25 L-3.9 -59.45 Q-7.8 -58.35 -15.2 -59.35 Q-22.3 -60.3 -26.95 -62.3 L-23.85 -62.65 L-14.95 -63.95 Q-13.45 -64.35 -13.45 -65.75 Q-13.45 -67.5 -19.6 -67.4 L-16.35 -67.55 L-1.9 -68.15 Q-0.7 -68.45 -0.7 -69.4 L-0.85 -70.65 Q-17.2 -70.65 -23.15 -71.15 L-22.1 -71.35 Q5.45 -75.2 5.45 -78.5 Q5.45 -79.55 5.2 -79.65 L4.9 -79.8 Q0.8 -79.9 -5.95 -78.1 Q-12.85 -76.3 -13.65 -76.3 L-18.1 -76.85 L-17.55 -77.3 Q-16.7 -77.9 -16.15 -79.4 L-17.1 -80.2 Q-11.25 -84.2 -11.25 -85.85 Q-11.25 -86.95 -11.6 -87 L-11.95 -86.8 Q-15.1 -85.7 -21.15 -81.75 L-21.9 -81.25 Q-25.4 -80.55 -31.35 -76.6 L-33.15 -75.35 L-33.2 -75.55 L-33.2 -75.3 L-33.4 -75.2 L-45.05 -71.5 Q-47.25 -70.75 -47.25 -67.9 L-47.25 -67.5 Q-48.5 -67.3 -49 -66.5 Q-48.75 -64.45 -51.2 -58.35 Q-53.7 -52.05 -53.7 -50.25 L-54 -49.7 Q-54.2 -49.1 -53.65 -48.65 Q-52.05 -47.25 -44 -47.25 L-35.15 -47.6 Q-34.55 -48.25 -34.3 -49.2 Q-38.85 -56.95 -47.75 -59.1 L-44.85 -64.7 Q-44.85 -65.8 -43.75 -65.8 L-43.6 -65.75 Q-42.35 -62.2 -39.1 -58.65 Q-32.55 -51.55 -21.85 -51.55 Q-20.1 -51.55 -19.65 -52.1 L-18.8 -53.55 Q-21 -55.45 -31.35 -60.05 Q-39.65 -63.7 -39.55 -66.1 L-35.35 -66.75 Q-33.6 -65.2 -31.75 -64.7 L-33.7 -64.25 Q-34.3 -64.05 -34.3 -62.95 Q-34.3 -61.2 -34.1 -62.15 Q-31.1 -60.2 -22.8 -58.1 Q-14 -55.9 -7.55 -55.85 Q-12.65 -53.65 -19.9 -50.9 Q-39 -43.6 -45.4 -43.25 L-45.05 -42.7 Z M-1.8 -56.65 Q-0.7 -57.7 0.1 -57.7 L0.6 -57.7 Q-3.55 -54.55 -4.95 -54.45 L-4.6 -54.6 Q-3.3 -55.25 -1.8 -56.65 Z M-29.4 -36.6 L-27.35 -36.7 L-28.95 -36.25 L-17.35 -38.2 Q-11.4 -39.35 -6.7 -42.55 L-13.55 -40.65 L-7.85 -42.95 Q7.8 -49.55 7.8 -53.15 Q7.8 -54.25 7.45 -54.3 L7.1 -54.1 Q-20.45 -35.95 -39.9 -38.45 Q-38.3 -36.6 -29.4 -36.6 Z M-36.3 -140.35 L-35.9 -138.05 L-35.8 -137.5 L-35.95 -140.35 L-36.3 -140.35 Z M-33.6 -69.85 Q-33.5 -70.3 -30.5 -69.85 L-33.6 -69.85 Z M-43.95 -66.9 L-43.85 -66.55 L-44.3 -66.75 L-43.95 -66.9 Z M-49.4 -32.3 Q-52.3 -32.3 -53.05 -30.85 Q-53.4 -30.2 -53.4 -28.1 Q-53.4 -25.3 -47.05 -25.3 Q-44.45 -29.1 -44.45 -30 L-44.7 -30.85 Q-47.8 -32.3 -49.4 -32.3 Z M-29.4 -30.05 Q-23.9 -30.05 -15.85 -32.1 Q-6.2 -34.55 -6.2 -37.55 Q-6.2 -38.6 -6.4 -38.75 L-6.65 -38.95 Q-9.55 -38.45 -12 -37.4 L-17.75 -34.85 L-26.3 -34.25 Q-33.55 -33.9 -37.15 -31.25 Q-32.35 -30.05 -29.4 -30.05 Z M-14.35 -23.65 Q-15.75 -22.1 -15.75 -20.5 Q-15.75 -19.65 -15.3 -19.45 Q-13.85 -18.7 -8.35 -18.7 Q-1.9 -18.7 -0.4 -20.5 Q-0.1 -20.85 -0.1 -22.95 L0.15 -23.6 Q0.3 -24.1 -0.25 -24.45 Q-1.95 -25.45 -10.25 -25.45 Q-12.7 -25.45 -14.35 -23.65 Z M-2.55 27.5 Q-18.55 32.7 -20.8 34.25 Q-22.4 35.35 -22.75 36.95 L-22.9 41.15 Q-22.9 45 -13.25 45 Q-11.65 45 -12.7 44.4 L-20.1 41.55 Q-19.1 36.5 -11.55 33.25 L-5.55 30.85 Q-2.2 29.55 -0.8 28.35 L-2.55 27.5 Z M-17.65 75.1 Q-19.9 71.2 -19.9 69.85 Q-19.9 69 -19.25 67.7 Q-18.6 66.35 -18.6 65.55 Q-18.6 62.4 -20.9 61.75 L-33.75 59.55 L-33.5 59.05 Q-24.05 52.65 -20.9 51.3 Q-21.05 50 -22.75 50 Q-26.9 50 -32.15 54.7 Q-36.9 58.9 -36.9 60.75 Q-36.9 62.1 -32.5 62.3 Q-26.25 62.6 -21.8 65.05 Q-21.95 66.75 -22.85 68.2 Q-23.65 69.6 -23.65 70.25 Q-23.65 71.3 -20.25 76.4 Q-16.8 81.6 -15.1 82.95 Q-14.25 82.65 -13.9 81.45 L-17.65 75.1 Z" fill="#f9fdfd" fill-rule="evenodd"/>
<path d="M-5.15 -130.95 L-4.95 -130.55 L-5.65 -130.05 Q-6.75 -129.45 -8.05 -129.8 L-9.75 -130.4 L-10.55 -130.55 L-18.9 -130.85 L-18.5 -131.9 L-18.15 -131.85 L-17.9 -131.55 Q-15.1 -131.45 -9.8 -131.5 L-5.25 -131.1 L-5.15 -130.95 Z M-26 -122.85 L-26.65 -122.15 L-26.9 -122.5 L-27 -122.9 L-26.85 -123.15 L-26.8 -123.25 L-25.8 -123.25 L-26 -122.85 Z" fill="#7f8fa4" fill-rule="evenodd"/>
<path d="M-19.45 134.05 L-18.75 133.55 Q-16.75 132.2 -16.55 132.2 Q-14.4 132.2 -13.85 135.8 Q-13.25 140 -10.75 141.15 Q-8 142.4 -6.3 145.35 Q-5.4 146.85 -5.05 148.2 L-4.85 149.8 Q-4.85 152.25 -5.55 152.9 Q-7.35 154.65 -14.35 154.65 L-20.8 154.2 Q-20.5 157.95 -19.55 161.1 Q-18.15 165.95 -18.15 167.4 Q-18.15 169.95 -19.25 177.65 Q-19.65 179.85 -21 182.7 L-21.55 183.7 L-21.75 184.05 L-25.5 184.45 Q-39 183.75 -41.9 184.3 L-41.9 184.35 L-41.9 184.5 Q-41.9 185.4 -42.65 185.4 L-42.75 185.3 L-43.15 185.3 L-43.95 185 L-45.1 185.05 Q-46.5 185.05 -46.5 184.2 Q-46.5 183.95 -44.9 183.7 Q-45.8 181.75 -46.35 177.4 L-46.9 169.45 Q-46.9 166.9 -45.45 165.05 Q-44 163.15 -44 158.55 Q-44 151.25 -44.7 150.25 L-45.65 148.2 L-46.35 146.2 Q-47.25 143.3 -47.25 142.15 Q-47.25 137.15 -46 134.35 Q-44.5 130.95 -40.2 127.45 L-40 127.25 L-40.1 126.95 L-39.95 126.7 Q-39.5 126.15 -37.5 125.4 Q-34.95 124.45 -33.8 124.45 Q-27.4 124.45 -24.5 129.35 Q-23 131.9 -22.2 135.8 L-21.45 135.3 L-20.75 135.15 Q-20.4 134.7 -19.45 134.05 Z M-44.3 134.7 L-44 134.15 Q-41.35 130.05 -37.6 130.05 L-36.25 130.15 L-35.85 130.05 Q-34 130.05 -30.55 132.5 Q-26.9 135.05 -26.45 136.95 Q-25 142.6 -25 144.3 Q-25 145.9 -25.65 148.2 L-26.95 151.75 Q-28.9 156.55 -28.9 157.95 Q-28.9 159.7 -24.55 164.75 Q-21.2 168.6 -20.45 172.6 L-19.7 167.3 Q-19.7 166.9 -21.05 161.45 Q-21.95 157.95 -22.25 154.2 L-22.45 154.2 L-23.25 153.55 Q-23.25 152.85 -22.35 152.7 L-22.45 149.95 L-22.4 148.2 Q-22.2 145.45 -21.45 142.55 L-20.5 138.7 L-20.75 137.25 L-20.85 137.25 L-22.45 136.65 Q-23.6 136 -24.35 134.95 L-24.5 134.7 L-26.05 130.85 Q-27.65 126.2 -32.9 125.85 L-33.85 125.8 Q-35.25 125.8 -36.75 126.4 L-37.6 126.7 L-38.2 127.05 L-38.15 127.15 L-38.55 127.5 L-40.25 128.7 Q-42.75 130.9 -44.45 134.55 L-44.9 135.65 L-44.3 134.7 Z M-37.5 131.45 Q-40.45 131.45 -42.8 135.25 Q-43.95 137.15 -44.5 139.05 Q-44.5 144.2 -42.25 148.2 L-40.55 150.65 L-37.9 154.05 Q-36.65 155.95 -36.65 158.2 Q-36.65 160.8 -39.9 165.6 Q-43.15 170.4 -43.15 176.65 L-43.25 177.05 L-43.4 177.25 L-42.1 183.4 L-38 183.1 L-30.85 182.8 Q-28.9 182.6 -27.15 182.75 L-24.35 183.1 Q-23.1 183.25 -22.1 180.5 L-22.75 179.65 Q-21.85 175.75 -21.85 175.05 Q-21.85 170.45 -26.15 165.4 Q-30.5 160.4 -30.5 157.85 Q-30.5 155.7 -28.45 151.15 L-27.25 148.2 Q-26.45 145.75 -26.45 144.15 Q-26.45 135.45 -34.2 131.85 L-37.5 131.45 Z M-18.3 134.8 L-19.6 136 Q-19.2 136.85 -19.15 138.7 L-20.05 142.7 Q-20.75 145.6 -20.95 148.2 L-21 149.95 L-20.95 151.2 Q-20.1 150.4 -17.7 150.4 Q-14.25 150.4 -12.75 152.05 L-10.5 152.3 L-9.05 152.6 Q-6.15 151.75 -6.15 149.8 L-6.35 148.2 Q-7.3 145 -11.95 141.7 Q-13.45 140.7 -14.85 136.95 L-16 133.45 Q-17.1 133.45 -18.3 134.8 Z M-43.6 149.05 L-44.05 148.2 Q-45.7 144.85 -45.95 140.7 L-46 142.2 Q-46 144.75 -44.7 147.25 L-44.2 148.2 L-43.75 149.15 L-43.45 149.95 L-42.65 155.85 Q-42.65 160.15 -44.05 164.55 Q-45.5 168.9 -45.5 170.1 Q-45.5 172.1 -44.95 174.85 L-44.95 175 L-44.9 174.85 Q-44.85 170.85 -41.55 165.25 Q-38.25 159.55 -38.25 158.2 Q-38.25 156.4 -39.45 154.6 L-42.1 151.35 L-43.6 149.05 Z M-16.15 153.2 L-15.35 153.25 L-14.2 153.25 Q-14.95 152.9 -15.25 152.9 L-16.15 153.2 Z" fill="#151515" fill-rule="evenodd"/>
<path d="M-44 134.15 L-44.3 134.7 L-44.45 134.55 Q-42.75 130.9 -40.25 128.7 L-38.55 127.5 L-38.15 127.15 L-38.2 127.05 L-37.6 126.7 L-36.75 126.4 Q-35.25 125.8 -33.85 125.8 L-32.9 125.85 Q-27.65 126.2 -26.05 130.85 L-24.5 134.7 L-24.35 134.95 Q-23.6 136 -22.45 136.65 L-20.85 137.25 L-20.75 137.25 L-20.5 138.7 L-21.45 142.55 Q-22.2 145.45 -22.4 148.2 L-22.45 149.95 L-22.35 152.7 Q-23.25 152.85 -23.25 153.55 L-22.45 154.2 L-22.25 154.2 Q-21.95 157.95 -21.05 161.45 Q-19.7 166.9 -19.7 167.3 L-20.45 172.6 Q-21.2 168.6 -24.55 164.75 Q-28.9 159.7 -28.9 157.95 Q-28.9 156.55 -26.95 151.75 L-25.65 148.2 Q-25 145.9 -25 144.3 Q-25 142.6 -26.45 136.95 Q-26.9 135.05 -30.55 132.5 Q-34 130.05 -35.85 130.05 L-36.25 130.15 L-37.6 130.05 Q-41.35 130.05 -44 134.15 Z M-19.6 136 L-18.3 134.8 Q-17.1 133.45 -16 133.45 L-14.85 136.95 Q-13.45 140.7 -11.95 141.7 Q-7.3 145 -6.35 148.2 L-6.15 149.8 Q-6.15 151.75 -9.05 152.6 L-10.5 152.3 L-12.75 152.05 Q-14.25 150.4 -17.7 150.4 Q-20.1 150.4 -20.95 151.2 L-21 149.95 L-20.95 148.2 Q-20.75 145.6 -20.05 142.7 L-19.15 138.7 Q-19.2 136.85 -19.6 136 Z M-43.75 149.15 L-43.6 149.05 L-42.1 151.35 L-39.45 154.6 Q-38.25 156.4 -38.25 158.2 Q-38.25 159.55 -41.55 165.25 Q-44.85 170.85 -44.9 174.85 L-44.95 174.85 Q-45.5 172.1 -45.5 170.1 Q-45.5 168.9 -44.05 164.55 Q-42.65 160.15 -42.65 155.85 L-43.45 149.95 L-43.75 149.15 Z" fill="#2b2b2b" fill-rule="evenodd"/>
<path d="M-42.8 135.25 Q-40.45 131.45 -37.5 131.45 L-34.2 131.85 Q-26.45 135.45 -26.45 144.15 Q-26.45 145.75 -27.25 148.2 L-28.45 151.15 Q-30.5 155.7 -30.5 157.85 Q-30.5 160.4 -26.15 165.4 Q-21.85 170.45 -21.85 175.05 Q-21.85 175.75 -22.75 179.65 L-22.1 180.5 Q-23.1 183.25 -24.35 183.1 L-27.15 182.75 Q-28.9 182.6 -30.85 182.8 L-38 183.1 L-42.1 183.4 L-43.4 177.25 L-43.25 177.05 L-43.15 176.65 Q-43.15 170.4 -39.9 165.6 Q-36.65 160.8 -36.65 158.2 Q-36.65 155.95 -37.9 154.05 L-40.55 150.65 L-42.25 148.2 Q-44.5 144.2 -44.5 139.05 Q-43.95 137.15 -42.8 135.25 Z" fill="#484848" fill-rule="evenodd"/>
<path d="M11.6 -132.45 Q13.95 -132.1 14.5 -128.8 L14.5 -128.5 L14.3 -128.15 Q13.9 -127.55 12.55 -127.3 L9.9 -127.1 L8.4 -127.15 L6.75 -127.3 Q4.55 -127.7 2.5 -128.5 L1.25 -129.1 Q4.95 -128.1 10.95 -128.1 Q13 -128.1 13 -129.4 L11.6 -132.45 Z M-57.7 -73.25 L-59.3 -73.1 L-60.95 -73.15 L-57.7 -73.25 Z M11.1 -130.35 L11.4 -129.7 L6.95 -129.3 L3.75 -130.2 L5.6 -130 L10.75 -130.1 L11.1 -130.35 Z M17.6 -117.05 Q14.75 -115.35 9.85 -115.35 Q5.5 -115.35 1.75 -117.2 L-1.75 -119.15 L-1.1 -119.5 Q3.2 -116.3 6.8 -116.3 Q15.65 -116.3 17.95 -118.15 Q18.45 -118.6 18.75 -119.4 Q19 -119.9 19.45 -119.85 L19.7 -119.35 Q19.7 -118.3 17.6 -117.05 Z M-53.5 -88.6 L-53.4 -88.35 Q-52.85 -86.7 -52.8 -85 L-52.9 -83.2 L-52.95 -79.75 L-53.2 -77.7 L-53.2 -77.65 Q-54.3 -83.4 -54.3 -86.45 Q-56.7 -94.35 -61.4 -92.85 L-61.4 -93.25 L-60.95 -93.4 L-60.4 -93.4 Q-55.15 -93.2 -53.5 -88.6 Z" fill="#003366" fill-rule="evenodd"/>
<path d="M-53.05 40.05 L-55.8 29.25 Q-60.3 11.65 -60.3 8.4 Q-60.3 6.1 -58.65 5.1 Q-57.95 6 -53.85 13 Q-49.05 19.55 -43.7 19.55 Q-36.6 19.55 -35.65 18.1 L-35.25 17.1 Q-35 16.65 -33.8 16.65 Q-30.95 16.65 -31.6 18.9 Q-32.2 21 -31.75 22 Q-25.75 20.75 -19.8 18.75 Q-10.45 15.65 -8.2 15.35 Q-12.4 18.05 -15.7 19.85 Q-21.9 23.2 -28.1 23.2 L-32.45 23 Q-35 24.55 -37.35 29.65 L-38.25 31.75 L-38.65 30.85 Q-39.8 32.5 -40.45 37 Q-41.15 42.1 -41.8 43.55 Q-43.05 46.45 -43.05 49.85 Q-43.5 50.55 -43.75 53 Q-44.2 56.45 -47.55 56.35 L-49.75 56.05 Q-50.75 55.9 -50.75 56.25 L-50.6 57.55 Q-51.85 57.1 -52.4 56.5 Q-52.95 55.9 -52.85 55.2 L-52.6 54.55 Q-51.3 49.15 -51.3 47.5 L-51.85 44.95 Q-51.95 43.35 -53.05 40.05 Z M-38.65 38.9 L-38.35 39.4 Q-37.15 41.25 -37.15 41.9 Q-37.15 42.8 -38.35 47.1 Q-39.6 51.4 -39.6 52.8 L-39.55 56.4 Q-39.95 58.4 -42.65 58.4 L-42.85 58.4 L-38.65 38.9 Z M-45 58.35 L-50.55 57.55 L-50.4 57.4 L-44.8 57.75 L-45 58.35 Z M11.75 -106.65 L11.2 -106.5 L10.05 -107.2 Q13.75 -111.55 19.25 -110.8 Q17.9 -109.15 14.35 -107.65 L12.05 -106.75 L11.85 -106.85 L11.75 -106.65 Z M-43.3 -41.6 L-45.05 -42.7 L-45.4 -43.25 Q-39 -43.6 -19.9 -50.9 Q-12.65 -53.65 -7.55 -55.85 Q-14 -55.9 -22.8 -58.1 Q-31.1 -60.2 -34.1 -62.15 Q-34.3 -61.2 -34.3 -62.95 Q-34.3 -64.05 -33.7 -64.25 L-31.75 -64.7 Q-33.6 -65.2 -35.35 -66.75 L-39.55 -66.1 Q-39.65 -63.7 -31.35 -60.05 Q-21 -55.45 -18.8 -53.55 L-19.65 -52.1 Q-20.1 -51.55 -21.85 -51.55 Q-32.55 -51.55 -39.1 -58.65 Q-42.35 -62.2 -43.6 -65.75 L-43.75 -65.8 Q-44.85 -65.8 -44.85 -64.7 L-47.75 -59.1 Q-38.85 -56.95 -34.3 -49.2 Q-34.55 -48.25 -35.15 -47.6 L-44 -47.25 Q-52.05 -47.25 -53.65 -48.65 Q-54.2 -49.1 -54 -49.7 L-53.7 -50.25 Q-53.7 -52.05 -51.2 -58.35 Q-48.75 -64.45 -49 -66.5 Q-48.5 -67.3 -47.25 -67.5 L-47.25 -67.9 Q-47.25 -70.75 -45.05 -71.5 L-33.4 -75.2 L-33.2 -75.3 L-33.2 -75.55 L-33.15 -75.35 L-31.35 -76.6 Q-25.4 -80.55 -21.9 -81.25 L-21.15 -81.75 Q-15.1 -85.7 -11.95 -86.8 L-11.6 -87 Q-11.25 -86.95 -11.25 -85.85 Q-11.25 -84.2 -17.1 -80.2 L-16.15 -79.4 Q-16.7 -77.9 -17.55 -77.3 L-18.1 -76.85 L-13.65 -76.3 Q-12.85 -76.3 -5.95 -78.1 Q0.8 -79.9 4.9 -79.8 L5.2 -79.65 Q5.45 -79.55 5.45 -78.5 Q5.45 -75.2 -22.1 -71.35 L-23.15 -71.15 Q-17.2 -70.65 -0.85 -70.65 L-0.7 -69.4 Q-0.7 -68.45 -1.9 -68.15 L-16.35 -67.55 L-19.6 -67.4 Q-13.45 -67.5 -13.45 -65.75 Q-13.45 -64.35 -14.95 -63.95 L-23.85 -62.65 L-26.95 -62.3 Q-22.3 -60.3 -15.2 -59.35 Q-7.8 -58.35 -3.9 -59.45 L-3.65 -59.25 Q-3.4 -59.1 -3.4 -58.05 L-3.4 -57.7 Q0.9 -59.75 2.75 -61.1 L5.15 -61.05 Q5.8 -60.95 5.8 -59.85 Q5.8 -59 0.8 -55.95 Q-4.45 -52.65 -11.4 -49.35 Q-18.85 -45.8 -25.05 -43.65 Q-31.35 -42.45 -43.3 -41.6 Z M-36.1 -40.8 L-40.95 -40.45 L-41.1 -40.5 L-36.1 -40.8 Z M0.1 -57.7 Q-0.7 -57.7 -1.8 -56.65 Q-3.3 -55.25 -4.6 -54.6 L-4.95 -54.45 Q-3.55 -54.55 0.6 -57.7 L0.1 -57.7 Z M-27.35 -36.7 L-29.4 -36.6 Q-38.3 -36.6 -39.9 -38.45 Q-20.45 -35.95 7.1 -54.1 L7.45 -54.3 Q7.8 -54.25 7.8 -53.15 Q7.8 -49.55 -7.85 -42.95 L-13.55 -40.65 L-27.35 -36.7 Z M-30.5 -69.85 Q-33.5 -70.3 -33.6 -69.85 L-30.5 -69.85 Z M-43.85 -66.55 L-43.95 -66.9 L-44.3 -66.75 L-43.85 -66.55 Z M-15.85 -32.1 Q-23.9 -30.05 -29.4 -30.05 Q-32.35 -30.05 -37.15 -31.25 Q-33.55 -33.9 -26.3 -34.25 L-17.75 -34.85 L-12 -37.4 Q-9.55 -38.45 -6.65 -38.95 L-6.4 -38.75 Q-6.2 -38.6 -6.2 -37.55 Q-6.2 -34.55 -15.85 -32.1 Z M-20.8 34.25 Q-18.55 32.7 -2.55 27.5 L-0.8 28.35 Q-2.2 29.55 -5.55 30.85 L-11.55 33.25 Q-19.1 36.5 -20.1 41.55 L-12.7 44.4 Q-11.65 45 -13.25 45 Q-22.9 45 -22.9 41.15 L-22.75 36.95 Q-22.4 35.35 -20.8 34.25 Z M-19.9 69.85 Q-19.9 71.2 -17.65 75.1 L-13.9 81.45 Q-14.25 82.65 -15.1 82.95 Q-16.8 81.6 -20.25 76.4 Q-23.65 71.3 -23.65 70.25 Q-23.65 69.6 -22.85 68.2 Q-21.95 66.75 -21.8 65.05 Q-26.25 62.6 -32.5 62.3 Q-36.9 62.1 -36.9 60.75 Q-36.9 58.9 -32.15 54.7 Q-26.9 50 -22.75 50 Q-21.05 50 -20.9 51.3 Q-24.05 52.65 -33.5 59.05 L-33.75 59.55 L-20.9 61.75 Q-18.6 62.4 -18.6 65.55 Q-18.6 66.35 -19.25 67.7 Q-19.9 69 -19.9 69.85 Z" fill="#e0e8e9" fill-rule="evenodd"/>
<path d="M-38.25 31.75 Q-37.95 32.7 -37.95 34.2 Q-37.95 35.1 -38.65 38.9 L-42.85 58.4 L-44.95 67.55 L-45.65 67.7 L-46.35 64.8 Q-46.35 61.85 -45 58.35 L-44.8 57.75 L-50.4 57.4 L-50.55 57.55 L-50.6 57.55 L-50.75 56.25 Q-50.75 55.9 -49.75 56.05 L-47.55 56.35 Q-44.2 56.45 -43.75 53 Q-43.5 50.55 -43.05 49.85 Q-43.05 46.45 -41.8 43.55 Q-41.15 42.1 -40.45 37 Q-39.8 32.5 -38.65 30.85 L-38.25 31.75 Z M-25.05 -43.65 L-23.75 -43.95 L-13 -46.65 Q-15.45 -45.15 -22.8 -43.25 Q-29.5 -41.5 -36.1 -40.8 L-41.1 -40.5 L-43.9 -40.45 Q-49.85 -40.45 -49.85 -41.25 L-43.3 -41.6 Q-31.35 -42.45 -25.05 -43.65 Z M-13.55 -40.65 L-6.7 -42.55 Q-11.4 -39.35 -17.35 -38.2 L-28.95 -36.25 L-27.35 -36.7 L-13.55 -40.65 Z" fill="#b0c0c4" fill-rule="evenodd"/>
<path d="M-53.05 -30.85 Q-52.3 -32.3 -49.4 -32.3 Q-47.8 -32.3 -44.7 -30.85 L-44.45 -30 Q-44.45 -29.1 -47.05 -25.3 Q-53.4 -25.3 -53.4 -28.1 Q-53.4 -30.2 -53.05 -30.85 Z M-15.75 -20.5 Q-15.75 -22.1 -14.35 -23.65 Q-12.7 -25.45 -10.25 -25.45 Q-1.95 -25.45 -0.25 -24.45 Q0.3 -24.1 0.15 -23.6 L-0.1 -22.95 Q-0.1 -20.85 -0.4 -20.5 Q-1.9 -18.7 -8.35 -18.7 Q-13.85 -18.7 -15.3 -19.45 Q-15.75 -19.65 -15.75 -20.5 Z" fill="#1d1d1d" fill-rule="evenodd"/>
<path d="M11.3 -139.65 L11 -138.3 L9.4 -138.4 L9.55 -139.8 L11.3 -139.65 Z M-17.8 -150.05 L-17.6 -151.3 L-16.9 -151 L-16.85 -150.25 L-16.95 -149.7 L-17.8 -150.05 Z M10.85 -137.7 L10.45 -135.8 Q10.45 -135.05 11.6 -132.45 L13 -129.4 Q13 -128.1 10.95 -128.1 Q4.95 -128.1 1.25 -129.1 L0.45 -129.35 L-1.5 -130.25 L-2.8 -130.9 L-6.8 -131.55 L-9.8 -131.5 Q-15.1 -131.45 -17.9 -131.55 L-18.15 -131.85 L-18.4 -132.2 L-18 -133.3 L-18.2 -134.9 Q-17.5 -138.2 -17.5 -139.1 Q-19.3 -141.4 -19.3 -141.75 Q-19.3 -144.85 -18.85 -145.9 L-17.95 -149.35 L-17.1 -148.95 L-18.35 -143.7 Q-18.35 -142.75 -17.35 -141.05 Q-16.4 -139.35 -16.4 -138.8 L-17.5 -133.5 L-17.45 -132.75 L-16.05 -132.8 Q-11.35 -133.05 -2.05 -131.6 L3.75 -130.2 L6.95 -129.3 L11.4 -129.7 L11.1 -130.35 Q9.3 -134.1 9.3 -135.7 L9.3 -137.05 L9.35 -137.65 L9.35 -137.8 L10.85 -137.7 Z M-53.55 -72.95 L-54.15 -72.6 L-54.55 -73.3 L-57.7 -73.25 L-60.95 -73.15 L-67.2 -73.05 L-70.55 -72.65 Q-80.75 -72.65 -84.2 -74.65 Q-85.25 -75.3 -85.55 -76.05 L-85.6 -76.7 Q-85.6 -82.1 -83.3 -92.45 Q-81.3 -101.25 -79.5 -106.15 Q-78.75 -108.2 -75.7 -113.4 Q-72.55 -118.7 -71.75 -120.95 Q-70.05 -129.45 -67.35 -133.35 L-66.85 -132.45 Q-67.9 -130.6 -68.7 -127.95 L-70.75 -120.85 Q-71.4 -118.8 -74.2 -114.05 L-78.05 -106.9 Q-80.6 -100.15 -84.6 -79.1 Q-84.6 -76.95 -83.95 -76.15 Q-81.95 -73.85 -74.9 -73.85 L-68.25 -74.4 L-64.9 -74.15 L-61.25 -74.5 L-54.7 -74.45 L-54.7 -74.65 L-54.65 -74.8 L-54.45 -77.25 Q-54.8 -91.55 -59.3 -91.55 Q-60.65 -91.55 -61 -91.1 Q-61.35 -90.65 -61.9 -90.65 L-62.15 -91.25 Q-62.55 -92.5 -62.55 -95.4 Q-62.55 -99.55 -59.65 -111.2 Q-56.75 -122.95 -54.35 -126.1 L-53.35 -126.9 L-53.25 -126.7 L-53.25 -126.6 L-53.25 -126.35 Q-53.25 -125.2 -58.85 -111.3 Q-59.55 -108.85 -59.65 -103.75 L-60.4 -101.15 L-61.1 -99.25 Q-61.5 -98.4 -61.5 -96.35 L-61.45 -94.7 L-61.4 -93.25 L-61.4 -92.85 Q-56.7 -94.35 -54.3 -86.45 Q-54.3 -83.4 -53.2 -77.65 L-53.15 -77.35 L-53.3 -74.7 L-53.3 -74.65 L-53.35 -74.45 L-53.25 -74.45 Q-53.25 -74.15 -52.85 -73.6 Q-52.9 -73.35 -53.45 -73.3 L-53.5 -73.05 L-53.55 -72.95 Z M-52.8 -132.2 L-52.65 -132.3 L-52.6 -132.3 L-52.55 -132.2 L-52.6 -132.2 L-52.8 -132.2 Z M-41.5 -132.1 L-41.3 -132.15 L-41.3 -132.1 L-41.5 -132.1 Z M-29.65 -123.6 L-28.35 -123.35 L-28.7 -122.4 L-28.85 -122.15 L-29.25 -122.15 Q-45.75 -122.15 -48.85 -123.75 Q-49.9 -124.3 -50.05 -125.4 Q-50.25 -126.7 -50.7 -127.2 L-51.65 -128.65 L-51.25 -129.1 Q-50.5 -127.9 -48.95 -126.65 L-47.85 -125.85 Q-46 -124.65 -43.6 -124 L-38.05 -123.35 L-29.65 -123.6 Z" fill="#000000" fill-opacity="0.302" fill-rule="evenodd"/>
<path d="M11 -138.3 L12.05 -138.25 Q14 -138.2 14 -137.25 L13.5 -135.05 L14.1 -134.35 Q14.7 -133.85 15.15 -133.85 Q16.1 -133.85 18.2 -137.75 L21.05 -142.8 Q22.45 -144.3 23.1 -146.65 L23.05 -147.75 Q23.05 -149.95 24.55 -154.25 Q26 -158.5 26 -162.7 Q26 -171.05 20.85 -177.85 Q15.8 -184.55 9.65 -184.55 L-1.35 -184.35 L-2 -183.95 L-3.2 -183.55 L-4.75 -182.45 L-8 -180.1 Q-10.5 -176.65 -11.85 -175.35 L-13.25 -173.1 L-14.35 -170.6 Q-15.7 -168.1 -19.05 -167.05 L-19.3 -167.7 Q-16.05 -169.55 -15 -171.25 L-12.25 -175.95 Q-10.5 -178.85 -7.35 -181.8 Q-3.5 -185.35 -1 -185.35 Q11.45 -185.35 12.35 -185.15 Q13.5 -184.85 20.1 -180.2 Q22.5 -178.45 24.4 -174.35 Q26.8 -169.3 26.8 -162.75 Q26.8 -158.85 25.8 -155.2 L23.9 -147.8 L23.75 -146.8 Q23.15 -143.95 21.5 -142 Q17.1 -132.85 15.25 -132.85 Q11.75 -132.85 13.1 -137.55 L10.85 -137.7 L9.35 -137.8 L9.3 -137.8 L9 -138.45 L9.4 -138.4 L11 -138.3 Z M-19 -166.85 L-18.85 -166.85 L-18.9 -166.75 L-19 -166.85 Z M-19.6 -165.8 L-22.2 -161.95 L-20.75 -159.3 L-22.2 -155.85 Q-23.65 -152.15 -23.65 -150.6 Q-23.65 -148.85 -22.25 -148.85 Q-20.1 -148.85 -19.6 -149.5 L-18.75 -150.2 L-17.8 -150.05 L-16.95 -149.7 L-14.65 -148.45 L-15 -147.5 L-17.1 -148.95 L-17.95 -149.35 L-18 -149.35 Q-19.15 -149.35 -19.5 -148.7 L-20.2 -148.1 Q-23.5 -148.1 -24.25 -149.3 L-24.35 -150.55 Q-24.35 -152.85 -22.9 -156.15 L-21.45 -159.2 Q-21.45 -159.8 -22.15 -160.55 Q-22.9 -161.3 -22.9 -161.8 L-21.7 -164.5 Q-20.8 -166.1 -19.9 -166.6 L-19.6 -165.8 Z M-67.35 -133.35 L-67.5 -133.9 Q-67.5 -134.9 -66.05 -137.55 Q-65.2 -139.1 -64.3 -139.85 Q-63.6 -140.5 -62.85 -140.5 L-62.65 -140.5 L-62.7 -140.35 L-63.5 -139.3 L-63.8 -138.9 L-64.2 -138.95 L-64.65 -137.65 L-66.4 -134.65 L-66.45 -134.35 L-62.95 -130.45 Q-58.85 -126.55 -55.95 -126.55 Q-54.9 -126.55 -53.95 -127.2 Q-53.25 -127.75 -52.6 -128.75 L-52.05 -129.75 L-51.8 -130.3 L-51.25 -131.25 L-50.85 -131.9 L-50.1 -131.9 L-49.95 -131.2 Q-49.95 -130.6 -51.25 -129.1 L-51.65 -128.65 L-52.4 -127.85 L-53.35 -126.9 L-54.35 -126.1 Q-55.8 -125 -56.9 -125 Q-60 -125 -64 -129.1 L-66.85 -132.45 L-67.35 -133.35 Z M-20 -166.8 L-20.45 -166.7 Q-20.75 -166.3 -20.75 -166.95 L-20.15 -167.25 L-20 -166.8 Z M2.1 -139.6 L4.35 -139.15 L0.4 -138.75 L-0.6 -138.9 Q-2.1 -139.4 -4.75 -141.55 Q-1.7 -140.4 2.1 -139.6 Z M-52.65 -132.3 L-53.5 -133.45 L-58.9 -141.8 Q-58.9 -144.25 -54.75 -145.15 L-54.65 -145.1 L-54.6 -145.15 L-49.3 -145.75 Q-47.3 -146.15 -46.95 -143.2 Q-43.4 -140.7 -40.65 -139.4 Q-39.7 -138.75 -39.7 -136.65 Q-39.7 -135.35 -40 -134.6 Q-40.35 -133.85 -40.95 -133.7 L-40.95 -133.65 L-41.15 -133.65 L-41.15 -133.7 L-41.25 -134.15 Q-40.6 -135.9 -40.6 -136.65 Q-40.6 -138.15 -43.55 -140.2 Q-46.35 -142.1 -47.95 -142.25 Q-47.8 -142.7 -48.05 -143.7 Q-48.3 -144.85 -49 -144.85 L-53.95 -144.35 L-54.65 -144.05 Q-55.4 -143.6 -56.55 -143.1 Q-58 -142.5 -58 -141.8 Q-58 -140.55 -52.6 -133.7 L-51.5 -132.3 L-51.45 -132.25 L-51.45 -132.2 L-51.6 -131.9 Q-51.35 -131.75 -51.9 -131.75 L-52.05 -131.75 L-52.55 -132.2 L-52.6 -132.3 L-52.65 -132.3 Z M-21.9 -129.65 Q-22.65 -129.65 -23.8 -130.45 L-25.55 -131.95 L-25.8 -132.15 Q-27.8 -133.95 -29.05 -133.4 L-29.05 -134.5 L-29.1 -134.75 L-30.1 -134.2 Q-31.6 -134.2 -32.75 -135.5 Q-34.05 -137.05 -34.8 -137.3 Q-34.8 -137.95 -34.3 -138.65 Q-33.85 -139.35 -33.85 -140.2 L-33.45 -140.2 Q-22.65 -138.8 -23.5 -135.25 Q-19.6 -134.75 -19.6 -133.35 L-19.65 -132.2 L-20.05 -130.85 L-20.2 -130.55 Q-20.75 -129.65 -21.9 -129.65 Z M-37.65 -146.6 L-37.8 -147.6 L-37.75 -147.8 L-37 -148.7 L-35.85 -149.35 L-34.9 -149.05 L-35.4 -148 L-35.4 -147.95 Q-35.45 -147.5 -37.65 -146.6 Z M-33.7 -138.05 L-33.85 -137.95 Q-31.4 -136.95 -30.9 -136.1 Q-30.65 -135.7 -29.2 -135.7 L-25.4 -132.55 L-23 -130.65 L-22.95 -130.6 L-21.75 -130.8 Q-20.75 -131.2 -20.55 -132.4 L-20.5 -133.15 Q-20.5 -134.1 -24.25 -134.3 L-24.15 -135.85 Q-24.15 -136.55 -27.15 -137.9 Q-30.25 -139.3 -32.1 -139.3 Q-33.05 -138.35 -33.7 -138.05 Z" fill="#000000" fill-rule="evenodd"/>
<path d="M-10.7 -146.7 L-7.75 -144.4 L-5.9 -143.3 L-6 -142.6 L-4.75 -141.55 Q-2.1 -139.4 -0.6 -138.9 L0.15 -138.75 L0.4 -138.75 L4.35 -139.15 L6 -139.4 Q8.3 -139.4 9 -138.45 L9.3 -137.8 L9.35 -137.65 L9.3 -137.05 L9.1 -136.25 Q9.1 -132.8 7.1 -132.8 Q5.9 -132.8 2.7 -134.55 L-0.7 -136.45 Q-2.1 -136.85 -7.85 -136.55 Q-12.45 -136.35 -14.25 -138.15 Q-15.1 -142.5 -15.1 -146.15 L-15 -147.5 L-14.65 -148.45 Q-14.4 -148.8 -14 -148.8 Q-13.25 -148.8 -13.15 -148 Q-13 -147.2 -12.3 -147.2 Q-11.2 -147.2 -10.9 -146.25 L-10.7 -146.7 Z M-47.95 -131.25 L-43.6 -131.7 L-41.15 -131.75 Q-40.5 -130.05 -39.75 -128.9 L-40.1 -128.05 Q-40.1 -127.45 -39.55 -127.05 Q-39.05 -126.65 -39.05 -126.1 Q-39.05 -125.7 -39.9 -124.8 Q-40.75 -123.85 -41.25 -123.85 L-43.6 -124 Q-46 -124.65 -47.85 -125.85 L-48.1 -126.1 Q-49.35 -127.4 -49.35 -128.6 Q-49.35 -130.7 -48.1 -131.2 L-47.95 -131.25 Z M-61.25 -74.5 L-64.9 -74.15 L-68.25 -74.4 Q-77.35 -75.15 -77.35 -75.9 Q-77.35 -76.2 -76.25 -76.25 Q-74.1 -76.35 -70.65 -78.1 Q-71.9 -78.55 -72.2 -79.65 L-73 -81.55 Q-72.75 -82.45 -71.7 -82.45 Q-70.95 -82.45 -69.4 -80.4 Q-67.85 -78.4 -65.85 -78.4 Q-65.05 -78.4 -64.1 -80.95 Q-63.15 -83.5 -62.55 -83.5 Q-60.75 -83.5 -60.75 -78.1 L-60.85 -76 Q-60.85 -74.75 -61.15 -74.55 L-61.25 -74.5 Z M-6.55 -144.55 L-6.3 -144.4 L-6.1 -144.25 L-6.55 -144.55 Z" fill="#1e140d" fill-opacity="0.302" fill-rule="evenodd"/>
<path d="M-17.6 -151.3 L-18 -151.35 Q-20.2 -151.35 -21 -150.1 L-22.3 -150.25 L-22.35 -150.55 Q-22.3 -152.5 -21.1 -155.25 L-21.05 -155.35 Q-19.3 -158.85 -19.45 -159.2 Q-19.3 -160.45 -20.65 -161.9 L-19.95 -163.5 L-19.25 -164.9 L-19.45 -165.35 L-17.6 -166.35 L-18.25 -165.2 L-17.3 -165.55 L-17.2 -165.65 L-16.9 -166.4 L-16.85 -166.85 Q-14.2 -168.55 -13.3 -170.2 L-13.25 -170.2 L-10.5 -174.95 L-10.55 -174.9 Q-8.9 -177.6 -6 -180.3 L-5.95 -180.35 Q-2.9 -183.2 -1 -183.35 L11.9 -183.2 Q13 -182.75 18.95 -178.55 Q20.95 -177.05 22.6 -173.5 Q24.8 -168.8 24.8 -162.75 Q24.8 -159.1 23.9 -155.7 L21.95 -148.3 L21.9 -148.05 L21.8 -147.2 Q21.3 -144.9 20 -143.3 L19.7 -142.85 Q16.75 -136.7 15.65 -135.25 L16 -137.25 L16.05 -137.9 L15.2 -136 Q15.1 -136 15.15 -135.85 L15.5 -135.05 L15.25 -134.85 L14.8 -134.85 Q14.6 -135.55 15.05 -137 L15 -138.15 L14.35 -139.1 Q13.85 -139.5 13.25 -139.55 L11.3 -139.65 L9.55 -139.8 Q0.4 -140.55 -2.25 -141.3 L-2.85 -141.4 Q-2.8 -141.55 -5.9 -143.3 L-7.75 -144.4 L-10.7 -146.7 L-16.9 -151 L-17.6 -151.3 Z M-19.05 -167.05 L-19 -166.85 L-18.9 -166.75 L-18.9 -166.7 L-19.55 -165.6 L-19.6 -165.8 L-19.9 -166.6 L-20 -166.8 L-20.15 -167.25 L-20.45 -167.9 L-19.4 -168.1 L-19.3 -167.7 L-19.05 -167.05 Z M21.1 -146.9 L21.1 -146.55 L21.2 -147.2 L21.1 -146.9 Z M-2.6 -181.6 L-2.55 -181.65 L-2.9 -181.55 L-2.6 -181.6 Z M-0.7 -182.35 L-0.05 -182.8 L-1.3 -182.35 L-0.7 -182.35 Z M-6.35 -178.9 L-6.55 -178.65 L-6.5 -178.7 L-6.35 -178.9 Z M-21.65 -150.6 L-21.6 -150.8 L-22.25 -150.85 Q-21.65 -150.1 -21.65 -150.6 Z M-6.3 -144.4 L-6.55 -144.55 L-6.1 -144.25 L-6.3 -144.4 Z" fill="#990000" fill-rule="evenodd"/>
<path d="M-51.45 -132.25 L-51.5 -132.3 L-52.6 -133.7 Q-58 -140.55 -58 -141.8 Q-58 -142.5 -56.55 -143.1 Q-55.4 -143.6 -54.65 -144.05 L-53.95 -144.35 L-49 -144.85 Q-48.3 -144.85 -48.05 -143.7 Q-47.8 -142.7 -47.95 -142.25 Q-46.35 -142.1 -43.55 -140.2 Q-40.6 -138.15 -40.6 -136.65 Q-40.6 -135.9 -41.25 -134.15 L-41.15 -133.7 L-41.15 -133.65 L-41.45 -133 L-48.35 -132.25 L-51.45 -132.2 L-51.45 -132.25 Z M-33.85 -137.95 L-33.7 -138.05 Q-33.05 -138.35 -32.1 -139.3 Q-30.25 -139.3 -27.15 -137.9 Q-24.15 -136.55 -24.15 -135.85 L-24.25 -134.3 Q-20.5 -134.1 -20.5 -133.15 L-20.55 -132.4 Q-20.75 -131.2 -21.75 -130.8 L-22.95 -130.6 L-23 -130.65 L-25.4 -132.55 L-29.2 -135.7 Q-30.65 -135.7 -30.9 -136.1 Q-31.4 -136.95 -33.85 -137.95 Z" fill="#252525" fill-rule="evenodd"/>
<path d="M-51.95 -131.3 L-51.25 -131.25 L-51.8 -130.3 L-52.05 -129.75 L-52.6 -128.75 Q-53.25 -127.75 -53.95 -127.2 Q-54.9 -126.55 -55.95 -126.55 Q-58.85 -126.55 -62.95 -130.45 L-66.45 -134.35 L-66.4 -134.65 L-64.65 -137.65 L-65.75 -134.45 L-63.25 -131.25 Q-60.3 -128.1 -58.15 -128.1 Q-57.25 -128.1 -56.4 -129.8 Q-55.65 -131.3 -55.65 -132.3 L-60.25 -136.65 Q-60.05 -136.7 -60.1 -136.85 L-61.55 -138.15 L-58.95 -136.75 Q-58.2 -136.3 -56.5 -133.65 Q-54.95 -131.95 -52.5 -131.4 L-51.95 -131.3 Z M-63.8 -138.9 L-63.5 -139.3 L-62.75 -138.8 L-62 -138 Q-63.1 -138.75 -63.8 -138.9 Z" fill="#373737" fill-rule="evenodd"/>
<path d="M24.7 -99 L53.1 -81.55 L84.9 -61.25 Q88.15 -51.55 76.75 -50.35 L44.4 -72.35 L23.75 -88.95 L23.25 -89.35 L8.65 -101.15 L8.1 -101.7 L-24.25 -123 L-23.95 -123.5 L-23.35 -126.1 L-22.9 -128.05 L-21.95 -127.45 L-20.85 -126.75 L-20.55 -126.6 L-19.6 -126 L10.05 -107.2 L11.2 -106.5 L11.5 -106.3 L11.75 -106.65 L11.85 -106.85 L12.05 -106.75 L23.95 -99.45 L24.7 -99 Z" fill="#bba674" fill-rule="evenodd"/>
<path d="M-60.25 -136.65 L-55.65 -132.3 Q-55.65 -131.3 -56.4 -129.8 Q-57.25 -128.1 -58.15 -128.1 Q-60.3 -128.1 -63.25 -131.25 L-65.75 -134.45 L-64.65 -137.65 L-64.2 -138.95 L-63.8 -138.9 Q-63.1 -138.75 -62 -138 L-60.25 -136.65 Z" fill="#6d0101" fill-rule="evenodd"/>
<path d="M76.75 -50.35 L44.4 -72.35 L23.75 -88.95 L23.25 -89.35 L8.65 -101.15 M8.1 -101.7 L-24.25 -123 L-24.65 -123.25 L-25.05 -123.5 M11.85 -106.85 L12.05 -106.75 M11.2 -106.5 L11.5 -106.3 M23.95 -99.45 L24.7 -99 M-23.95 -123.5 L-23.35 -126.1 L-22.9 -128.05 L-21.95 -127.45 L-20.85 -126.75 L-20.55 -126.6 L-19.6 -126" fill="none" stroke="#806f51" stroke-width="1" stroke-linecap="round" stroke-linejoin="round"/>
</svg>
