<svg xmlns="http://www.w3.org/2000/svg" viewBox="-11.5 -116.9 80.55 56.150000000000006" width="80.55" height="56.150000000000006">
<path d="M36.3 -116.9 Q39 -116.9 46.9 -112.2 L47.2 -112.25 L47.5 -111.9 L47.5 -111.8 L48.6 -111.15 Q48.6 -110.25 47.6 -110.25 L47.1 -110.4 L44.65 -103.5 L43.4 -100.1 L45.85 -101.1 L50.15 -102.5 L56.4 -106.6 L56.25 -106.75 Q56.75 -107.25 57.3 -107.25 Q59.95 -107.25 64.6 -105.65 Q69.05 -104.1 69.05 -103.4 Q69.05 -102 68.1 -101.75 L65 -97 L59.25 -89.1 Q52.9 -80.85 46.75 -78.4 Q43.15 -77 35.65 -77 L32.95 -77.05 Q24.05 -60.75 17.55 -60.75 L13.7 -61.35 L13.65 -61.35 L13.2 -61.35 Q4.8 -63.65 2 -64 L-8.9 -65.15 Q-11.5 -65.4 -11.5 -66.5 Q-11.5 -68.95 -5.65 -76.1 Q-0.15 -82.75 2.3 -84.2 L2.75 -83.85 Q4.15 -85.2 6.5 -84.6 Q9.65 -83.8 11.6 -86.65 Q12.65 -88.2 16.05 -90.6 Q17.95 -92.4 23 -99 L35.8 -115.85 L35.4 -116.2 L36.3 -116.9 Z M2 -82.95 L2.55 -83.7 L1.8 -83.1 L2 -82.95 Z" fill="#bba674" fill-rule="evenodd"/>
</svg>
