<svg xmlns="http://www.w3.org/2000/svg" viewBox="0.1 0 107.15 363.85" width="107.15" height="363.85">
<path d="M99.05 24.5 L98.6 24.5 L89.55 15.35 L85.75 11.35 Q81.45 7.1 75.4 5.65 L75.3 5.25 Q77.7 4.35 80.05 5.2 Q81 5.45 81.9 6.3 Q86.1 10.05 89.65 14.25 L96.95 22.35 L99.05 24.5 Z M71.65 4.35 L71.05 4.6 Q68.4 3.9 68.05 1.3 Q66.25 1.7 65.9 3.6 L65.6 6.95 Q62.25 6.85 59.5 8.85 L56.3 11.3 L54.1 13.35 L54.95 12.25 Q50.25 16.35 47.25 21.8 L51.75 16.3 Q49 20.65 45.65 24.75 Q44.6 26 43.85 27.65 L41.4 32.6 L41.35 32.85 L41.15 32.35 Q38.05 39.5 35.85 47.15 L34.25 51.75 L24.5 75.7 L22.75 79.9 Q22.4 80.8 22.55 81.9 L22.95 83.65 Q23.6 85.4 22.45 86.9 Q18.85 91.55 14.9 95.65 Q12.9 97.65 11.85 100.35 L11.3 101.85 L10.8 103.2 L11.8 105.45 L12.4 105.4 L12.5 107.3 L12.65 107.4 L12.85 107.35 L12.7 108.8 L11.7 107.15 Q10.1 110.35 9.8 113.8 L10.1 114.3 L5.75 123.25 Q2.7 129.5 1.55 136.3 Q0.95 139.85 1.15 143.55 Q1.35 146.6 1.95 149.6 Q3.25 155.85 6.5 161.45 L10.3 168.65 Q14.85 177.9 18 187.55 Q19.8 193 22.3 198.4 Q25.25 204.8 27.05 211.6 L27.55 214.6 L28.1 226.15 Q28.2 229.25 28.6 232.45 Q28.85 234.3 29.65 235.95 Q31.4 239.3 31.6 243.1 L31.5 243.25 L29.1 246.75 Q27.7 248.75 27.65 250.85 L28.85 252.55 L28.7 253.1 L29.5 254.3 Q29.85 254.8 29.75 255.25 Q29.25 257.4 28.35 259.35 Q26.55 263.3 25.3 267.45 Q25.1 268.15 25.05 268.9 L24 278.65 Q23.8 280.45 23.9 282.25 Q24.15 287.95 23.5 293.5 Q22.9 298.35 20.35 302.4 Q18.6 305.15 18.15 308.4 Q17.4 313.5 18.5 318.55 Q18.9 320.5 18.95 322.55 Q19.1 326.35 16.55 328.75 L16.3 328.3 Q15.4 330 14.9 331.85 Q14.5 333.3 15.7 334.15 Q17.65 335.4 19.65 336.25 Q22.25 337.45 25.3 337.05 Q30.05 337.25 35 336.8 L34.25 337.4 Q33.65 337.9 33 337.95 L25.9 338.15 Q21.45 337.85 17.5 336.3 Q16.05 335.8 14.8 334.95 Q14.15 334.55 14.05 333.9 Q13.8 332.1 14.45 330.4 L16.5 325.35 L17.25 323.65 L17.5 322.4 Q17.6 318.8 16.9 315.2 Q16.45 312.85 16.7 310.4 Q16.85 308.8 17.45 307.35 L21.4 297.55 Q22.55 294.9 22.7 292.3 Q22.95 288.3 22.8 284.1 Q22.6 278.15 23.8 272.3 L24.8 268.1 Q26.65 260.7 28.1 253.25 Q25.9 252.8 26.3 250.4 Q26.7 248 28.2 246.05 Q29.5 244.3 30.05 242.3 L30.1 241.35 L29.4 239.25 Q28.2 237.15 27.8 234.95 Q27.05 231.1 26.95 227.1 L26.7 218 Q26.6 212.9 24.95 208.2 L22.75 202.75 L21.2 199.15 L16.4 187.9 L8.55 170.1 Q5.2 162.75 2.55 155.25 Q1.25 151.5 0.55 147.5 Q-0.55 141 1.1 134.6 L2.1 130.1 Q3.9 121.55 8.6 114.2 L8.8 112.55 Q9.6 109.35 11.25 106.4 Q9.15 104.05 10.25 101.2 Q11.4 98.45 13.4 96.05 Q16.65 92.2 20.05 88.7 Q21.7 87.1 22.4 85.1 L21.85 82.75 L21.8 81.35 Q21.95 79.9 22.45 78.55 L24.65 73.05 L27.2 66.4 L32 54.55 L33.95 49.7 L35.75 44.55 Q37.8 37.3 41.35 30.75 Q47.05 20.35 54.6 11.15 Q56.45 8.95 59 7.25 Q60.75 6.1 62.85 6.5 Q66 4.5 66.2 0.9 L68 0.55 L68.55 0 L71.65 4.35 Z M69.35 202.05 L69.85 202.1 L68.4 208.45 L68.7 208.9 Q68.15 211.9 68.95 214.85 L72.45 228.85 L71.75 229.9 Q70.4 223.35 68.55 216.95 Q67.05 211.65 68.2 206.3 L69.05 200.7 L69.65 201.2 L69.35 202.05 Z M73.25 237.4 L73.15 239.05 L71.85 243.5 L69.55 251.15 Q68.15 256.1 65.3 260.35 L66.2 257.65 L69.65 247.85 Q71.4 242.8 72.45 237.6 L73.25 237.4 Z" fill="#6b7e8c" fill-rule="evenodd"/>
<path d="M98.6 24.5 L99.05 24.5 L99.7 25.2 L104.45 29.6 Q106 31.1 106.75 32.95 Q103.75 40.75 101.75 49.3 Q101.2 51.65 101.05 53.8 L101.1 55.9 L101.7 61.35 Q102.55 67.35 101.95 73.35 Q101.65 76.7 99.7 79.35 L99.3 77.65 L98.7 77.75 Q98.25 82.15 98.45 86.4 L98.35 87.85 L97.85 88.9 L90.8 99.1 L88.6 102.2 Q86.05 105.4 83.1 108.05 L76.95 113.35 Q72.7 116.75 68 119.35 L66 120.3 L60.25 120.1 L60.25 120.75 L61.2 121.9 L65.75 122.05 L64.6 126.35 Q62.45 133.65 62.25 141.25 L61.45 141.2 L61.65 141.95 Q64.4 147.15 68.2 151.8 L69.05 153.05 Q70 154.7 68.75 156.3 Q68.9 157.85 69.65 159.2 L75.05 168.65 L75.7 170.05 L77.55 175.15 L78.45 177.3 Q80.75 182.1 80.9 187.5 L80.95 191.75 L81 193.55 L81.3 196.1 Q81.8 198.75 82.7 201.15 L85 207.05 L88.2 215.45 Q89.2 218.55 89.45 221.7 Q89.7 224.95 89.15 228.1 L88.2 233 L84.95 248.05 Q83.55 254.35 81.5 260.6 Q77.75 272.1 72.6 283 Q69.75 289.05 67.3 295.15 L66.45 297.05 Q65.7 298.4 66.05 299.6 L67.9 296.1 Q67.45 299 67.35 301.95 Q67.25 304.5 65.5 306.3 L64.4 307.2 Q59.8 309.45 54.75 310 L53.2 309.65 L53.1 309.2 L48.8 310.9 Q49.5 309.95 49.8 308.7 L51.5 302.25 Q53.2 296.3 55.4 290.55 Q60.6 277 65.2 263.4 L64.5 262.6 Q61.15 272.75 57.05 282.55 L55.5 286.3 Q51.5 296.75 48.9 307.5 Q48.45 309.3 47.2 310.85 L46 310.3 L46.05 311.15 L47.05 311.05 L42.55 316.95 Q40.95 319.15 40.4 321.7 L38.5 329.55 Q37.9 331.7 36.55 333.15 L35.2 334.75 Q34.65 335.6 35.15 336.65 L35 336.8 Q30.05 337.25 25.3 337.05 Q22.25 337.45 19.65 336.25 Q17.65 335.4 15.7 334.15 Q14.5 333.3 14.9 331.85 Q15.4 330 16.3 328.3 L16.55 328.75 Q19.1 326.35 18.95 322.55 Q18.9 320.5 18.5 318.55 Q17.4 313.5 18.15 308.4 Q18.6 305.15 20.35 302.4 Q22.9 298.35 23.5 293.5 Q24.15 287.95 23.9 282.25 Q23.8 280.45 24 278.65 L25.05 268.9 Q25.1 268.15 25.3 267.45 Q26.55 263.3 28.35 259.35 Q29.25 257.4 29.75 255.25 Q29.85 254.8 29.5 254.3 L28.7 253.1 L28.85 252.55 L27.65 250.85 Q27.7 248.75 29.1 246.75 L31.5 243.25 L31.6 243.1 Q31.4 239.3 29.65 235.95 Q28.85 234.3 28.6 232.45 Q28.2 229.25 28.1 226.15 L27.55 214.6 L27.05 211.6 Q25.25 204.8 22.3 198.4 Q19.8 193 18 187.55 Q14.85 177.9 10.3 168.65 L6.5 161.45 Q3.25 155.85 1.95 149.6 Q1.35 146.6 1.15 143.55 Q0.95 139.85 1.55 136.3 Q2.7 129.5 5.75 123.25 L10.1 114.3 L9.8 113.8 Q10.1 110.35 11.7 107.15 L12.7 108.8 L12.85 107.35 L12.65 107.4 L12.5 107.3 L12.4 105.4 L11.8 105.45 L10.8 103.2 L11.3 101.85 L11.85 100.35 Q12.9 97.65 14.9 95.65 Q18.85 91.55 22.45 86.9 Q23.6 85.4 22.95 83.65 L22.55 81.9 Q22.4 80.8 22.75 79.9 L24.5 75.7 L34.25 51.75 L35.85 47.15 Q38.05 39.5 41.15 32.35 L41.35 32.85 L41.4 32.6 L43.85 27.65 Q44.6 26 45.65 24.75 Q49 20.65 51.75 16.3 L47.25 21.8 Q50.25 16.35 54.95 12.25 L54.1 13.35 L56.3 11.3 L59.5 8.85 Q62.25 6.85 65.6 6.95 L65.9 3.6 Q66.25 1.7 68.05 1.3 Q68.4 3.9 71.05 4.6 L71.65 4.35 L72.2 4.25 Q74.15 3.8 75.3 5.25 L75.4 5.65 Q81.45 7.1 85.75 11.35 L89.55 15.35 L98.6 24.5 Z M76.3 8.3 L75.4 5.65 L75.2 7.4 L76.3 8.3 Z M69.85 202.1 L69.35 202.05 L69.65 201.2 L69.05 200.7 L68.2 206.3 Q67.05 211.65 68.55 216.95 Q70.4 223.35 71.75 229.9 L72.45 228.85 L68.95 214.85 Q68.15 211.9 68.7 208.9 L68.4 208.45 L69.85 202.1 Z M73.15 239.05 L73.25 237.4 L72.45 237.6 Q71.4 242.8 69.65 247.85 L66.2 257.65 L65.3 260.35 Q68.15 256.1 69.55 251.15 L71.85 243.5 L73.15 239.05 Z" fill="#f9fdfd" fill-rule="evenodd"/>
<path d="M101.75 49.3 Q103.75 40.75 106.75 32.95 L107 32.4 L107.25 32.2 L107.25 32.4 L106.6 34.75 Q104.15 41.45 102.5 48.5 L102.25 50.4 Q102.25 55.65 102.75 60.9 L103.15 67.1 Q103.3 71.2 102.9 75.3 Q102.55 79 99.7 81.65 Q100.4 82.65 100.5 84 Q100.7 86.55 99.65 88.85 Q95.45 97.75 88.45 104.65 L78.75 113.65 Q74.5 117.45 69.65 120.3 Q68.15 121.2 67.2 122 Q66.15 126.1 64.55 130.3 Q64.05 131.6 63.9 133.05 Q63.6 135.9 63.65 138.9 Q63.7 140.55 63.15 141.95 L62.7 142.75 L65.4 146.1 Q67.4 148.3 69.05 150.7 L69.95 152.25 Q71 154.6 69.8 156.75 L70.1 157.55 L70.65 158.75 L74.55 166.45 L76.35 169.65 Q80.15 175.95 81 183.4 L81.25 187.75 Q81.3 191.55 82.1 195.05 Q83.2 199.65 85.05 204 Q87.15 208.9 88.95 214.15 L90.15 218.25 L90.7 221.55 L90.7 223.55 Q90.05 228.95 88.95 234.25 Q86.1 247.9 82.55 261.4 Q81.1 267 79 272.4 Q75.65 280.9 71.65 288.95 Q70.5 291.2 69.75 293.6 Q69.25 295.1 69.1 296.7 Q68.75 300.75 67.6 304.45 L66.7 306.25 Q63.9 310.4 58.8 310.9 L48.65 311.15 L44.5 316.55 Q43.35 317.85 42.7 319.55 Q41.55 322.65 41.15 326.05 L41.15 327.15 L41.6 327.9 L40 330.4 Q38.15 333.6 35.15 336.65 Q34.65 335.6 35.2 334.75 L36.55 333.15 Q37.9 331.7 38.5 329.55 L40.4 321.7 Q40.95 319.15 42.55 316.95 L47.05 311.05 L46.05 311.15 L46 310.3 L47.2 310.85 Q48.45 309.3 48.9 307.5 Q51.5 296.75 55.5 286.3 L57.05 282.55 Q61.15 272.75 64.5 262.6 L65.2 263.4 Q60.6 277 55.4 290.55 Q53.2 296.3 51.5 302.25 L49.8 308.7 Q49.5 309.95 48.8 310.9 L53.1 309.2 L53.2 309.65 L54.75 310 Q59.8 309.45 64.4 307.2 L65.5 306.3 Q67.25 304.5 67.35 301.95 Q67.45 299 67.9 296.1 L66.05 299.6 Q65.7 298.4 66.45 297.05 L67.3 295.15 Q69.75 289.05 72.6 283 Q77.75 272.1 81.5 260.6 Q83.55 254.35 84.95 248.05 L88.2 233 L89.15 228.1 Q89.7 224.95 89.45 221.7 Q89.2 218.55 88.2 215.45 L85 207.05 L82.7 201.15 Q81.8 198.75 81.3 196.1 L81 193.55 L80.95 191.75 L80.9 187.5 Q80.75 182.1 78.45 177.3 L77.55 175.15 L75.7 170.05 L75.05 168.65 L69.65 159.2 Q68.9 157.85 68.75 156.3 Q70 154.7 69.05 153.05 L68.2 151.8 Q64.4 147.15 61.65 141.95 L61.45 141.2 L62.25 141.25 Q62.45 133.65 64.6 126.35 L65.75 122.05 L61.2 121.9 L60.25 120.75 L60.25 120.1 L66 120.3 L68 119.35 Q72.7 116.75 76.95 113.35 L83.1 108.05 Q86.05 105.4 88.6 102.2 L90.8 99.1 L97.85 88.9 L98.35 87.85 L98.45 86.4 Q98.25 82.15 98.7 77.75 L99.3 77.65 L99.7 79.35 Q101.65 76.7 101.95 73.35 Q102.55 67.35 101.7 61.35 L101.1 55.9 L101.05 53.8 Q101.2 51.65 101.75 49.3 Z" fill="#6b7e8c" fill-rule="evenodd"/>
<path d="M48.25 310 L55.6 310.75 Q62 310.8 66.5 307.15 L67.05 306.6 L70 302.65 L68 302.6 L68.45 302.25 L70.6 302.3 Q70.45 306.45 73.75 308.95 Q75 309.9 76.65 310.6 Q81.85 312.35 86.5 315.7 L89.45 317.4 Q91.85 318.75 94.25 317.8 L95 317.3 L95.7 316.7 L97.85 318.1 L98.25 321.5 Q98.55 323.95 96.45 325.65 Q93.85 327.6 90.55 328.35 Q83.95 329.95 77.3 329 L76.2 328.6 Q74.55 327.3 72.4 327 Q68.8 326.3 65.3 326.9 Q62.05 327.7 58.95 328.9 L56.7 329.5 L48.35 330.1 L45.5 329.35 Q45 327 42.6 326.6 L41.75 326.5 L40.7 325 L40.5 324.6 L42.85 318.9 Q43.2 317.75 43.8 316.75 L48.25 310 Z M41.4 327.95 Q42.75 327.7 43.8 329.2 L43.65 329.2 L40.2 328.55 L41.4 327.95 Z" fill="#1d1d1d" fill-rule="evenodd"/>
<path d="M65.65 305.75 Q66.3 303.75 68 302.6 L70 302.65 L67.05 306.6 L66.5 307.15 Q62 310.8 55.6 310.75 L48.25 310 L49 308.7 L56.7 309.5 Q60.25 309.35 63.3 307.85 Q64.6 307.25 65.45 306.15 L65.65 305.75 Z M70.6 302.3 L74.55 306.55 Q76.35 308.45 78.55 309.95 L82.9 312.55 Q84 313.25 85.25 313.65 Q88.35 314.7 91.7 314.35 Q94.35 314.35 96.65 315.75 Q97.75 316.3 98.35 317.5 Q100.05 321.1 98.55 324.9 Q97.5 327.45 95.25 328.85 L92.95 329.85 L78.8 330.35 L76.15 329.65 Q73.95 328.7 71.75 328.2 Q64.5 327 57.95 330.35 L56.55 331 L49.4 331.05 L48.35 330.1 L56.7 329.5 L58.95 328.9 Q62.05 327.7 65.3 326.9 Q68.8 326.3 72.4 327 Q74.55 327.3 76.2 328.6 L77.3 329 Q83.95 329.95 90.55 328.35 Q93.85 327.6 96.45 325.65 Q98.55 323.95 98.25 321.5 L97.85 318.1 L95.7 316.7 L95 317.3 L94.25 317.8 Q91.85 318.75 89.45 317.4 L86.5 315.7 Q81.85 312.35 76.65 310.6 Q75 309.9 73.75 308.95 Q70.45 306.45 70.6 302.3 Z M45.5 329.35 Q45.65 331.65 47.1 333.65 L48.7 336.15 Q50.45 338.9 53.15 340.6 L56.5 342.5 Q60.95 344.95 65.75 346.75 L73.85 349.5 Q74.6 349.7 75.3 350.15 L76 351 Q77.45 354.7 75.75 358.25 Q73.95 361.9 69.85 362.65 Q63.05 364 56 363.85 L59.65 363.55 Q50.4 363.6 41.2 362.15 Q37.4 361.65 33.95 360 Q27.95 357.1 21.25 357.1 L11.05 356.35 Q8.25 355.7 6.25 353.9 Q5.25 352.95 4.65 351.75 Q4.05 350.7 4.15 349.6 Q4.5 344.25 7.45 339.95 Q8.4 338.5 8.85 336.8 Q10.15 332.35 11.8 327.85 Q12.15 326.95 13.05 326.65 L14.6 327.05 L17.35 327.55 L17.65 327.9 L16.5 328.5 L17.6 331.25 Q18.1 332.95 19.05 334.65 Q20.35 337 22.7 337.25 Q25.2 337.45 27.65 336.5 L29.05 335.85 L29.65 335 L30 332.85 Q30.1 332.15 30.5 331.65 Q34.45 326.85 40.85 326.55 L40.4 326.15 L40.7 325 L41.75 326.5 L42.6 326.6 Q45 327 45.5 329.35 Z M43.8 329.2 Q42.75 327.7 41.4 327.95 Q37.95 328 34.95 329.05 Q32 330.1 31.7 333.3 Q31.35 337.3 27.35 338.15 L25.3 338.5 Q21.7 339.35 19.3 336.65 Q17.5 334.6 16.5 332.05 L15.15 328.6 L13.35 327.95 L11.8 332.3 L10.7 335.55 L9.25 339.3 L5.8 346.6 Q4.95 348.4 5.25 350.35 Q5.7 353.35 8.7 354.15 Q11.55 355 14.4 355.05 L23.7 355.25 Q29.65 355.6 34.7 358.65 Q38.45 360.9 42.9 361.65 L49.6 362.2 L59.85 362.2 L56 362.5 L66 362.05 Q70.65 361.05 73.75 357.3 Q74.85 355.95 75.1 354.1 Q75.2 353.45 74.95 352.85 Q74.3 351.1 72.55 350.5 L62.95 347 L60.35 345.8 Q56.45 343.25 52.3 341.05 L50.5 339.7 Q48.2 337.35 46.55 334.35 L46.3 334.35 L46.2 334.3 L45.95 334.2 L43.65 329.2 L43.8 329.2 Z" fill="#151515" fill-rule="evenodd"/>
<path d="M43.65 329.2 L45.95 334.2 L46.2 334.3 L46.3 334.35 L46.55 334.35 Q48.2 337.35 50.5 339.7 L52.3 341.05 Q56.45 343.25 60.35 345.8 L62.95 347 L72.55 350.5 Q74.3 351.1 74.95 352.85 Q75.2 353.45 75.1 354.1 Q74.85 355.95 73.75 357.3 Q70.65 361.05 66 362.05 L56 362.5 L59.85 362.2 L49.6 362.2 L42.9 361.65 Q38.45 360.9 34.7 358.65 Q29.65 355.6 23.7 355.25 L14.4 355.05 Q11.55 355 8.7 354.15 Q5.7 353.35 5.25 350.35 Q4.95 348.4 5.8 346.6 L9.25 339.3 L10.7 335.55 L11.8 332.3 L13.35 327.95 L15.15 328.6 L16.5 332.05 Q17.5 334.6 19.3 336.65 Q21.7 339.35 25.3 338.5 L27.35 338.15 Q31.35 337.3 31.7 333.3 Q32 330.1 34.95 329.05 Q37.95 328 41.4 327.95 L40.2 328.55 L43.65 329.2 Z" fill="#2b2b2b" fill-rule="evenodd"/>
<path d="M52.45 317.55 L52.65 316.15 Q53.1 312.65 56.25 311.55 L56.85 312.05 Q54.3 313 53.75 315.9 Q53.6 316.7 53.7 317.45 Q53.75 318 54.15 318.3 Q56.65 320.15 59.55 321.2 Q60.7 321.65 61 322.55 Q57.9 322.95 55.1 321.15 Q53.35 320 52.45 317.55 Z M10.7 342 Q10.2 343.8 9.4 343.3 L9.15 341.35 L9.85 337.3 Q13.8 338.25 17.05 335.75 L17.35 337.05 Q16.4 337.85 15.15 338.25 L13.95 338.65 Q11.4 339.3 10.7 342 Z M21.35 341.55 L20.2 342.95 Q19.3 344.2 19.55 345.55 Q19.8 346.95 21.1 347.7 Q23.85 349.25 26.8 350.2 Q30.25 351.25 33.45 352.7 L30.9 352.1 L26.6 350.9 L22.25 349.8 Q19.65 349.35 18.8 346.95 Q17.65 343.85 19.45 341 L20.3 340.05 Q21.5 338.85 23.2 338.85 Q22.45 340.35 21.35 341.55 Z M63.55 355.55 Q61.7 355.3 61.3 353.5 L62 353.1 Q64.35 353.05 66 354.5 Q67.8 356.1 66.85 358.15 Q59.05 358.8 51.1 357.8 Q46.45 357.1 41.9 355.45 L48.3 355.2 L51.9 356.05 L55.75 356.75 Q59.4 357 62.85 356.65 L62.95 356.2 L63.55 355.55 Z M89.9 320 L90.3 319.85 Q93.65 319.5 94.3 322.35 Q93.95 323.15 93.05 323.55 Q91.8 324.25 90.4 324.05 L78.2 322.7 L91.55 321.8 L89.6 320.85 L89.9 320 Z" fill="#647682" fill-rule="evenodd"/>
<path d="M46.1 115.25 L47 115.15 L53.75 117.9 L50.75 124.25 L44.75 121.65 L46.1 115.25 Z M55.25 126.25 L56.5 121.25 Q56.85 119.85 57.9 119.5 Q62.1 120.05 65 123.05 L64.25 126.6 Q63.95 128.1 62.8 128.85 L61.95 128.8 Q58.4 128 55.25 126.25 Z M9.35 114.3 L12.3 107.35 L15.75 107.75 L15.75 110.6 L15.4 113.15 L14.95 113.95 Q13.35 115.3 11 115.05 Q9.95 115.2 9.35 114.3 Z" fill="#1d1d1d" fill-rule="evenodd"/>
<path d="M13.25 107.35 L21.55 107.2 L21.55 107.65 L24.2 108.3 L23.8 108.6 L13.25 107.35 Z M71.9 230.7 L73 232.5 L73.15 234.8 L72.4 235.65 L71.9 230.7 Z" fill="#6b7e8c" fill-rule="evenodd"/>
<path d="M92 57.15 Q93.95 56.25 96.05 56.8 Q98.15 57.5 98.05 59.85 L97.8 62 L97.2 65.45 Q95 77.7 94.05 90.2 L92.35 91.2 L91.1 88.3 Q90.85 87.7 90.85 86.95 L90.65 77.45 L90.4 80.4 Q90.05 84 88.95 87.2 L87.7 90.95 L82.55 104.25 Q81.95 104.85 81.3 104.85 L79.75 104.55 L79.75 103.85 Q80 101.25 80.85 98.6 L83.4 89.3 L82.15 92.25 L79.5 98.1 L76.7 103.35 L74 107.35 L71.45 110.05 Q69.15 111.9 66.25 111.6 L64.05 108.9 Q60.45 111.6 56.55 113.6 L55.8 114 Q51.25 113.65 47.05 114 L46.85 112.65 Q47.55 111.45 48.65 110.35 Q58 100.95 66.6 90.55 L65.2 91.7 Q60.55 95.35 55.35 98.4 Q52.55 100.1 49.6 99.15 L49.4 99.6 L49.2 98.2 L61 87.65 Q65.9 83.25 69.95 78.05 Q65.05 82.7 59.8 86.6 Q54.75 90.25 49 92.55 L47.05 90.85 L61.1 78.3 Q46.1 86.95 30.2 93.95 L28.35 93.1 L28.95 92.8 L36.4 88.7 L43.7 85.1 L57.8 77.75 L62.05 75.65 Q66.35 73.5 69.55 70 L67.95 70.65 Q63.1 72.9 58.65 75.25 L57.05 74.7 Q58.05 71.95 60.75 70.2 Q63.9 68.15 67.2 66.4 L64.7 64.2 L63.85 64.75 Q60.85 66.5 58.15 68.65 Q50.1 75.2 41.45 80.85 Q38.45 82.8 35.4 83.85 L35.15 82.45 L44.9 76.25 L52.45 71.15 Q56.2 68.65 58.55 65.25 L56.75 66.4 Q53.55 67.95 49.85 67.55 Q48.25 67.55 47.05 66.75 Q54.85 62.2 63.6 60.55 L68.95 63.8 Q70.6 64.75 72.4 65.25 Q75.4 66.25 78.25 67.8 L83.95 62.4 Q87.6 59.05 92 57.15 Z M30.85 109.7 L24.2 108.3 L21.55 107.65 L21.55 107.2 L13.25 107.35 L12.5 107.3 Q11.95 103.95 14.35 101.6 Q17.1 98.9 20.15 96.5 Q20.6 96.15 21.25 96 L21.65 97.55 L15.6 105.5 L20.2 105.8 L23.8 105.65 Q27.05 105.15 29.9 103.4 L37.25 98.6 L37.25 98.5 L37.45 98.15 L37.5 98.2 Q37.75 100 36.2 101 L29.35 106.15 Q30.95 106.15 32.5 105.55 L39.9 102.2 L40.6 102.45 L40.65 103.55 L39.85 104.65 L33.05 109.35 Q38.55 109.3 43.9 108.05 L45.8 108.9 L43.55 110.85 L42.4 111.45 L33.7 111.8 Q31.9 112.15 30.4 111.3 L30.9 110.3 L30.85 109.7 Z M65.75 87.8 L67.25 87.1 Q69.5 86.2 70.8 83.9 L72.35 80 L65.75 87.8 Z M15.8 149.65 Q15.25 148.8 15.1 147.9 Q15.05 147.5 15.45 147.55 L22.45 152.65 Q25.65 154.85 29.45 156.4 Q30.65 156.8 31.7 157.5 L31.9 157.9 Q27.7 158.2 23.7 156.3 Q18.85 153.95 15.8 149.65 Z M22.2 129.15 L19.4 127 L18.35 125.8 L19.35 125.95 L21.2 126.5 L27.65 129.7 Q29.55 130.6 30 132.15 L27.65 132.25 Q24.8 130.95 22.2 129.15 Z M20.85 142.2 L16.35 139.35 L15.95 138.9 L17.5 139.7 L27.05 144.25 Q32.85 146.8 37.15 151.25 L29.9 147.55 L20.85 142.2 Z M30.35 141 L28.45 140.85 Q25.7 140.15 23.5 138.55 Q18.8 135.2 15.1 130.7 L31.05 140.75 L30.35 141 Z M31.7 164.3 L29.5 164.35 Q26.5 163.65 23.75 161.95 L19 159.15 Q21.55 162.35 25 164.65 Q28.2 166.8 30.9 169.5 L30.65 169.8 L30.55 169.75 L21.6 163.3 Q19.4 161.75 17.8 159.85 Q17.2 159.15 17 158.35 Q16.65 157.1 15.95 156.35 L15.2 155.95 L16.85 156.2 L20.45 157.8 L31.65 163.75 L31.85 164.15 L31.7 164.3 Z M18.8 168.75 L17.25 167.3 Q16.4 166.6 17.35 166.55 L17.55 166.65 Q20.7 168.85 23.65 171.3 L35.8 181.7 Q36.2 182.1 36.1 182.5 L33.2 182.25 Q29.5 180.5 26.6 177.45 L18.8 168.75 Z M21.35 180.4 Q19.55 178.35 19 175.9 L19.8 176 L38.4 193.35 L37.85 193.75 Q34.55 191.7 31.45 189.5 Q28.4 187.35 25.7 184.85 L21.35 180.4 Z M72.25 175.4 L70.95 177.25 L71 177.45 L69.1 178.1 L67.65 179.05 L68.7 181.7 Q71.1 184.45 74.7 184.9 L75.75 185.25 L68.7 185.7 Q68.9 189.35 69.25 192.95 L69.5 194.5 L69.9 195.35 Q72.15 198.35 75.2 200.6 Q79.85 204.1 83.1 208.65 L81.4 208.75 Q79.35 208.35 77.8 206.9 L75.35 205.15 Q74.25 204.65 73.1 203.8 Q71.35 202.5 69.35 202.05 L70.85 199.55 Q67.15 194.9 66.45 188.9 L65.6 182.05 Q65.25 179.15 64.1 176.5 L65.8 175.1 L66.5 174.6 Q67.55 174 68.85 174.3 Q70.8 174.65 72.25 175.4 Z M80.7 240.75 L81.55 241.6 L81.5 242.6 Q81.4 243.9 80.75 245.05 Q79.05 248.1 76.8 250.95 L69.9 259.2 L66.1 263 L65.35 263.45 L64.45 262.25 Q65.3 260.1 66.65 257.95 Q69.85 253.1 73.35 248.5 Q76.6 244.25 80.7 240.75 Z M71.65 236.4 L72.4 235.65 L73.15 234.8 L73 232.5 L71.9 230.7 L71.6 230.05 Q72.75 228.7 73.05 227.15 L73.3 225.6 Q73.45 224.55 72.8 223.55 Q71.5 221.4 70.6 219.05 Q71.5 218.35 72.65 218.6 L75.1 219.3 Q77.95 219.9 80.35 221.45 L80.15 222.2 L79.15 222.5 Q76.3 221.1 73.4 221.65 L75.7 228.5 L81.85 228.2 Q82.45 229.85 81.1 231.25 Q79.3 233.2 76.8 234.45 L75.1 235.5 L73 237.55 L71.65 237.45 L71.65 236.4 Z M79.55 216.95 Q73.5 213.3 68.4 208.45 L69.1 207.3 Q69.35 207.35 69.6 207.55 L71.45 208.65 Q76.35 212.05 80.85 215.95 L80.4 216.75 L79.65 217 L79.55 216.95 Z M48.4 236 L48.3 236.8 L47.5 236.9 Q45.55 236.7 43.7 235.6 Q40.2 233.4 37.55 230.15 Q34.5 226.35 31.8 222.15 L29.9 219.55 Q28.9 218.3 28.55 216.95 Q29.05 216.25 29.55 216.8 L29.9 217.2 L33.6 221.35 Q40.5 229.3 48.4 236 Z M51.35 225.05 L51.5 225.25 L50.6 225.3 L49.55 224.95 Q46.05 223.3 43.15 220.8 L40.15 218.25 Q36.1 214.8 32.5 210.85 Q28.4 206.35 26.35 200.65 L27.25 200.6 L51.6 224.4 L51.35 225.05 Z M32.7 297.5 L33.3 295.55 L33.55 295.6 L33.9 295.9 Q36.2 296.05 37.25 293.9 L37.95 294.45 L38.05 295.6 Q36.6 297.55 34.45 299.2 L31.45 301.65 Q27.85 304.95 23.75 306.9 L22.7 306.85 L22.75 305.8 Q24.35 304.4 26.4 303.55 Q28.4 302.65 30.2 301.2 Q32.05 299.75 32.7 297.5 Z M66.05 273.7 Q69.7 268.95 73.6 264.5 L74.7 265 L72.85 267.15 Q71.3 268.95 69.95 270.9 Q66.6 275.7 63.65 280.85 L62.1 283.5 Q61.15 285.3 59.9 285.8 L59.65 285.4 Q59.45 284.95 59.55 284.55 Q59.8 283.15 60.4 282.1 Q62.9 277.75 66.05 273.7 Z M25.15 316.05 Q32.2 308.65 40.9 302.9 Q42.45 301.9 44.1 301.75 Q41.3 305.8 37.45 308.75 L31.4 313.45 L29.5 315.05 L32.35 315.2 L32.45 315.65 L32.6 316.4 L32.5 316.9 L32.1 317.6 L31.65 317.75 L32.45 318 Q34.9 318.9 36.35 320.55 Q35.2 321.55 33.6 321.1 Q28.8 319.45 25.15 316.05 Z" fill="#e0e8e9" fill-rule="evenodd"/>
<path d="M79.1 64.85 L79.45 66.75 L78.8 67.5 L79.8 66.75 L80.7 67.8 Q77.9 70.6 74.45 71.7 L74.35 71 L77.1 67.4 L74.65 67.25 Q70.05 76.3 62.05 82.65 L61.35 82.6 Q61.3 82.4 61.4 82.3 L64.15 79.4 L67.4 76.2 L69.75 73.3 L74.35 67.1 Q74.4 66.55 74.6 66.15 Q75.8 63.75 78.4 62.65 L78.6 63.2 L78.6 64.1 Q78.45 64.7 79.1 64.85 Z M58.35 73.1 Q64.7 68.85 70.55 64.25 L68.75 63.35 L63.75 65.8 Q60.5 67.5 57.25 69.3 Q55.5 70.3 54.75 69.55 L68.3 62.35 L71.95 63.9 Q64.15 73.25 52.55 76.75 Q54.6 75.75 56.35 74.5 L58.35 73.1 Z M52.85 51.65 L53.2 52.2 L51.8 53 Q55.4 54.95 59.15 56.75 L60.55 57.55 L50.6 53.25 L48.2 54 L45.85 54.05 L45.65 53.8 L52.85 51.65 Z M46.85 100.6 Q51.2 97.45 55.2 93.7 Q55.7 93.2 55.8 94 L55.45 94.75 Q54.55 96.1 53.35 97 Q45.95 102.6 37.85 107 L39.25 103.05 L40.2 103.25 L39.95 104.4 Q43.55 102.9 46.85 100.6 Z M46.9 109.9 L46.5 110.35 Q44.05 112.7 40.6 113.25 L36.85 112.35 L33.95 111.8 Q32.1 111.3 31.35 110.2 L22.25 108.65 L22.3 107.65 L22.4 107.5 L20.3 107.35 L16.8 106.9 L15.9 105.8 Q16.2 105.7 16.45 105.55 L18.5 105.9 L26.4 106.35 Q29.2 106.3 31.6 105.1 L32.3 104.75 L32.75 105.35 L32.45 105.7 L25.2 107.65 L28.85 107.75 Q30.5 107.7 32 108.45 Q33.4 109.15 34.15 110.6 L35.2 110.95 L37.95 111.6 L39.85 111.5 Q43.3 110.2 46.9 109.9 Z M65.75 184.5 Q64.6 179.7 66.05 175.15 L66.3 174.45 L66.4 175.55 L69.7 175.9 L66.65 176.4 L66.95 180.35 L66.3 180.25 L65.9 177.1 L66.6 184.25 L73.85 184.6 Q71.2 185.95 68.05 185.9 L68.15 188.75 L66.9 187.05 L66.7 186.85 Q66.65 186.8 66.6 186.9 L65.1 185.15 L65.75 184.5 Z M81.35 207.45 L82.2 208.35 Q82.4 208.65 81.9 208.8 L80.25 208.45 Q74.3 206.9 69.9 202.6 L70.2 201.35 L71.3 200.95 Q76.5 203.8 81.35 207.45 Z M73.5 203.9 L74.3 204.45 L75 204.45 L73.5 203.9 Z M69.1 211.3 L68.7 208.9 L70.05 208.3 L77.5 213.75 L77 214.25 Q75.75 214.25 74.7 213.65 Q73.9 213.1 73 212.85 Q71.05 212.2 69.8 210.45 L69.7 211.2 L69.1 211.3 Z" fill="#b0c0c4" fill-rule="evenodd"/>
<path d="M82.8 65.9 L80.7 67.8 L79.8 66.75 L79.45 66.75 L79.1 64.85 Q82.6 63.9 85.2 61.05 Q88.35 57.7 91.9 54.8 L92.85 55.75 L94.45 55.8 L96 55 L97.2 54.6 L97.15 55.65 L98.6 56.1 L98.75 56.6 L98.6 57.1 Q95.65 58.75 92.55 59.85 Q91.75 60.15 91.45 61.05 Q90.85 62.85 89.85 64.45 L89.15 63.8 Q89.4 65.05 88.6 66.05 L88.1 66.6 L87.45 66 L87.4 65.8 Q85.3 67.05 82.95 67.9 L82.8 65.9 Z" fill="#f9fdfd" fill-rule="evenodd"/>
</svg>
